<svg xmlns="http://www.w3.org/2000/svg" xmlns:xlink="http://www.w3.org/1999/xlink" width="73" height="73" viewBox="0 0 73 73">
  <defs>
    <clipPath id="clip-path">
      <rect id="Rectangle_1747" data-name="Rectangle 1747" width="73" height="73" transform="translate(-2913 863)" fill="#adadad"/>
    </clipPath>
    <clipPath id="clip-Artboard_1">
      <rect width="73" height="73"/>
    </clipPath>
  </defs>
  <g id="Artboard_1" data-name="Artboard – 1" clip-path="url(#clip-Artboard_1)">
    <g id="Mask_Group_40" data-name="Mask Group 40" transform="translate(2913 -863)" clip-path="url(#clip-path)">
      <g id="Group_1094" data-name="Group 1094" transform="translate(-2910.933 864.565)">
        <g id="Group_35" data-name="Group 35" transform="translate(22.902 19.46)">
          <g id="Group_34" data-name="Group 34">
            <rect id="Rectangle_8" data-name="Rectangle 8" width="2.294" height="2.294" fill="#fff"/>
          </g>
        </g>
        <g id="Group_37" data-name="Group 37" transform="translate(6.178 33.695)">
          <g id="Group_36" data-name="Group 36">
            <path id="Path_19" data-name="Path 19" d="M67.4,255.069c-1.231-10.514-4.337-23.046-12.137-23.046s-10.906,12.532-12.137,23.046a6.063,6.063,0,0,0,6.018,6.778H61.385a6.062,6.062,0,0,0,6.018-6.778ZM55.265,234.317c4.251,0,6.783,5.958,8.259,11.918l-.459.459a4.64,4.64,0,0,1-6.408,0,6.824,6.824,0,0,0-9.651,0h0l-.132.132C48.314,240.678,50.873,234.317,55.265,234.317Zm8.929,23.974a3.714,3.714,0,0,1-2.809,1.262H49.146a3.714,3.714,0,0,1-2.809-1.262,3.793,3.793,0,0,1-.936-2.956c.143-1.222.351-2.76.64-4.442l2.574-2.574a4.64,4.64,0,0,1,6.408,0,6.817,6.817,0,0,0,9.072.513c.5,2.475.824,4.8,1.024,6.5A3.793,3.793,0,0,1,64.194,258.291Z" transform="translate(-43.085 -232.023)" fill="#fff"/>
          </g>
        </g>
        <g id="Group_39" data-name="Group 39" transform="translate(0 4.597)">
          <g id="Group_38" data-name="Group 38" transform="translate(0 0)">
            <path id="Path_20" data-name="Path 20" d="M38.227.5A32.925,32.925,0,0,0,21.115,2.106,4.362,4.362,0,0,0,15.16.638a4.291,4.291,0,0,0-2.1,3.695V5.411H11.97a1.083,1.083,0,0,0-1.088,1.078V9.937A10.3,10.3,0,0,0,2.6,20a12.549,12.549,0,0,0,3.753,8.975l1.287,1.269A31.8,31.8,0,0,0,.331,55.483l.022.15a10.657,10.657,0,0,0,10.53,9.048H23.936a10.54,10.54,0,0,0,3.116-.477A32.606,32.606,0,0,0,64.791,37.887,32.358,32.358,0,0,0,38.227.5ZM15.234,4.333a2.176,2.176,0,0,1,4.351,0V5.411H15.234ZM13.058,7.566h8.7V9.721h-8.7ZM23.936,62.525H10.882a8.477,8.477,0,0,1-8.376-7.2l-.023-.151A29.665,29.665,0,0,1,9.936,30.917,1.07,1.07,0,0,0,9.9,29.434l-2-1.986A10.42,10.42,0,0,1,4.777,20a8.045,8.045,0,0,1,.484-2.733H20.672V15.109H6.438a8.083,8.083,0,0,1,6.535-3.233h8.872a8.158,8.158,0,0,1,8.2,8.12h0a10.42,10.42,0,0,1-3.115,7.451l-2,1.986a1.07,1.07,0,0,0-.039,1.483,29.665,29.665,0,0,1,7.453,24.247l-.025.162A8.476,8.476,0,0,1,23.936,62.525Zm19.6-2a30.711,30.711,0,0,1-10.9,2c-.726,0-1.45-.045-2.176-.1a10.5,10.5,0,0,0,4-6.789l.024-.163a31.918,31.918,0,0,0,.311-3.861A19.4,19.4,0,0,0,51.912,35.775L49.77,35.4a17.244,17.244,0,0,1-15,14.056,31.8,31.8,0,0,0-7.594-19.207l1.287-1.275A12.549,12.549,0,0,0,32.217,20a10.14,10.14,0,0,0-1.2-4.813c.537-.05,1.081-.075,1.625-.075a17.329,17.329,0,0,1,17.135,14.2l2.142-.377A19.5,19.5,0,0,0,32.638,12.954a19.94,19.94,0,0,0-3.025.25c-.142-.159-.281-.323-.435-.473a10.318,10.318,0,0,0-5.242-2.794V6.488a1.083,1.083,0,0,0-1.088-1.078H21.76V4.333c0-.054-.014-.108-.016-.158A30.546,30.546,0,0,1,61.082,21.557,30.088,30.088,0,0,1,43.536,60.528Z" transform="translate(0 -0.022)" fill="#fff"/>
          </g>
        </g>
        <g id="Group_41" data-name="Group 41" transform="translate(50.13 35.602)">
          <g id="Group_40" data-name="Group 40">
            <path id="Path_21" data-name="Path 21" d="M370.11,231.551l-2.294.135c.021.358.031.717.031,1.079s-.01.722-.031,1.079l2.294.135c.023-.4.036-.8.036-1.215S370.133,231.954,370.11,231.551Z" transform="translate(-367.816 -231.551)" fill="#fff"/>
          </g>
        </g>
        <path id="Path_22" data-name="Path 22" d="M438.61-27.569a3.962,3.962,0,0,1-2.811-1.155,3.905,3.905,0,0,1-1.162-2.791.524.524,0,0,0-.524-.524.524.524,0,0,0-.524.524,3.905,3.905,0,0,1-1.162,2.791,3.962,3.962,0,0,1-2.811,1.155.524.524,0,0,0-.524.524.524.524,0,0,0,.524.524,3.97,3.97,0,0,1,3.973,3.957.524.524,0,0,0,.524.524.524.524,0,0,0,.524-.524,3.969,3.969,0,0,1,3.973-3.957.524.524,0,0,0,.524-.524A.524.524,0,0,0,438.61-27.569Z" transform="translate(-371.126 32.038)" fill="#fff"/>
        <path id="Path_23" data-name="Path 23" d="M452.329,414.966a3.942,3.942,0,0,1-3.952-3.923.74.74,0,1,0-1.48,0,3.942,3.942,0,0,1-3.952,3.923.74.74,0,0,0,0,1.48,3.948,3.948,0,0,1,3.952,3.935.74.74,0,1,0,1.48,0,3.948,3.948,0,0,1,3.952-3.935.74.74,0,0,0,0-1.48Z" transform="translate(-382.359 -351.046)" fill="#fff"/>
        <path id="Path_24" data-name="Path 24" d="M.69,4.373A2.7,2.7,0,0,1,3.4,7.063a.69.69,0,1,0,1.38,0,2.708,2.708,0,0,1,2.711-2.7.69.69,0,1,0,0-1.38A2.7,2.7,0,0,1,4.781.294a.69.69,0,1,0-1.38,0A2.708,2.708,0,0,1,.69,2.993a.69.69,0,0,0,0,1.38Z" transform="translate(0 4.933)" fill="#fff"/>
      </g>
    </g>
  </g>
</svg>
