<svg xmlns="http://www.w3.org/2000/svg" xmlns:xlink="http://www.w3.org/1999/xlink" width="73" height="73" viewBox="0 0 73 73">
  <defs>
    <clipPath id="clip-path">
      <rect id="Rectangle_1754" data-name="Rectangle 1754" width="73" height="73" transform="translate(-2906 1004)" fill="#adadad"/>
    </clipPath>
    <clipPath id="clip-Artboard_2">
      <rect width="73" height="73"/>
    </clipPath>
  </defs>
  <g id="Artboard_2" data-name="Artboard – 2" clip-path="url(#clip-Artboard_2)">
    <g id="Mask_Group_47" data-name="Mask Group 47" transform="translate(2906 -1004)" clip-path="url(#clip-path)">
      <g id="Group_1115" data-name="Group 1115" transform="translate(-2899.402 1002)">
        <g id="Group_1109" data-name="Group 1109" transform="translate(0.402 5.544) rotate(-7)">
          <g id="Group_1106" data-name="Group 1106" transform="translate(7.842 0)">
            <g id="Group_1105" data-name="Group 1105">
              <path id="Path_14699" data-name="Path 14699" d="M5.236.308A1.089,1.089,0,0,0,4.476,0a1.068,1.068,0,0,0-.757.3A14.025,14.025,0,0,0,0,9.928,11.34,11.34,0,0,0,1.046,14.7a1.083,1.083,0,1,0,1.964-.91,9.154,9.154,0,0,1-.839-3.854A12.19,12.19,0,0,1,4.49,2.785,12.406,12.406,0,0,1,6.876,9.963a9.044,9.044,0,0,1-.8,3.845,1.1,1.1,0,0,0,.533,1.452,1.075,1.075,0,0,0,1.439-.522,11.206,11.206,0,0,0,1-4.764A14.316,14.316,0,0,0,5.236.308Z" fill="#fff"/>
            </g>
          </g>
          <g id="Group_1108" data-name="Group 1108" transform="translate(0 13.254)">
            <g id="Group_1107" data-name="Group 1107" transform="translate(0 0)">
              <path id="Path_14700" data-name="Path 14700" d="M15.276,22.658a.981.981,0,0,0-.848,1.145,1.069,1.069,0,0,0,1.06.8,1.182,1.182,0,0,0,.2-.017,12,12,0,0,0,6.271-3.025,10.065,10.065,0,0,0,2.77-9.223,1.071,1.071,0,0,0-1.055-.78h0A14.537,14.537,0,0,0,14.4,15.39a11.8,11.8,0,0,0-.915.961l-.034-6.439s0-.007,0-.011A7.321,7.321,0,0,1,15.9,5.3a12.448,12.448,0,0,1,6.795-3.157,8.083,8.083,0,0,1-2.34,6.585A9.689,9.689,0,0,1,15.217,11.2a.981.981,0,0,0-.848,1.145,1.069,1.069,0,0,0,1.06.8,1.182,1.182,0,0,0,.2-.017A12,12,0,0,0,21.9,10.1,10.065,10.065,0,0,0,24.673.881,1.071,1.071,0,0,0,23.618.1h0a14.536,14.536,0,0,0-9.274,3.829,10.4,10.4,0,0,0-1.885,2.331,10.712,10.712,0,0,0-1.909-2.349A14.8,14.8,0,0,0,1.235,0h0A1.045,1.045,0,0,0,.186.77a10.19,10.19,0,0,0,2.866,9.249,12.275,12.275,0,0,0,6.3,3.082,1.188,1.188,0,0,0,.2.019,1.043,1.043,0,0,0,1.051-.793,1,1,0,0,0-.86-1.153A9.909,9.909,0,0,1,4.591,8.66,8.218,8.218,0,0,1,2.182,2.054,12.714,12.714,0,0,1,9.01,5.273,7.488,7.488,0,0,1,11.5,9.891l0,.011.034,6.44a12.249,12.249,0,0,0-.924-.969,14.8,14.8,0,0,0-9.315-3.913h0a1.045,1.045,0,0,0-1.047.77,10.19,10.19,0,0,0,2.866,9.249,12.273,12.273,0,0,0,6.3,3.082,1.189,1.189,0,0,0,.2.019,1.043,1.043,0,0,0,1.051-.793,1,1,0,0,0-.86-1.153,9.909,9.909,0,0,1-5.16-2.514,8.218,8.218,0,0,1-2.409-6.606A12.714,12.714,0,0,1,9.07,16.732a7.487,7.487,0,0,1,2.487,4.618l0,.011.035,6.71a12.248,12.248,0,0,0-.924-.969,14.8,14.8,0,0,0-9.314-3.913h0a1.045,1.045,0,0,0-1.047.77,10.189,10.189,0,0,0,2.866,9.248,12.273,12.273,0,0,0,6.3,3.082,1.188,1.188,0,0,0,.2.019,1.043,1.043,0,0,0,1.051-.793,1,1,0,0,0-.86-1.153,9.909,9.909,0,0,1-5.16-2.514A8.218,8.218,0,0,1,2.3,25.242a12.712,12.712,0,0,1,6.828,3.219,7.488,7.488,0,0,1,2.487,4.618l0,.011.092,17.528a1.033,1.033,0,0,0,.982.982,1.009,1.009,0,0,0,.972-.973L13.575,33.1l0-.011a7.324,7.324,0,0,1,2.439-4.6,12.446,12.446,0,0,1,6.795-3.157,8.083,8.083,0,0,1-2.34,6.585,9.691,9.691,0,0,1-5.133,2.467.98.98,0,0,0-.848,1.145,1.069,1.069,0,0,0,1.06.8,1.182,1.182,0,0,0,.2-.017,12,12,0,0,0,6.271-3.025,10.064,10.064,0,0,0,2.77-9.223,1.071,1.071,0,0,0-1.055-.78h0a14.537,14.537,0,0,0-9.274,3.829,11.848,11.848,0,0,0-.915.961l-.035-6.71s0-.007,0-.011a7.321,7.321,0,0,1,2.439-4.6,12.448,12.448,0,0,1,6.795-3.157,8.083,8.083,0,0,1-2.34,6.585A9.694,9.694,0,0,1,15.276,22.658Z" fill="#fff"/>
            </g>
          </g>
        </g>
        <g id="Group_1114" data-name="Group 1114" transform="translate(42.83 18.87) rotate(22)">
          <g id="Group_1111" data-name="Group 1111" transform="translate(6.968 0)">
            <g id="Group_1110" data-name="Group 1110" transform="translate(0 0)">
              <path id="Path_14701" data-name="Path 14701" d="M4.594.263a.96.96,0,0,0-1.32,0A12.233,12.233,0,0,0,0,8.611a9.713,9.713,0,0,0,.89,4.127.944.944,0,0,0,1.712-.8,7.84,7.84,0,0,1-.714-3.331,10.607,10.607,0,0,1,2.046-6.2,10.607,10.607,0,0,1,2.046,6.2,7.838,7.838,0,0,1-.714,3.331.944.944,0,1,0,1.712.8,9.712,9.712,0,0,0,.89-4.127A12.233,12.233,0,0,0,4.594.263Z" fill="#fff"/>
            </g>
          </g>
          <g id="Group_1113" data-name="Group 1113" transform="translate(0 11.45)">
            <g id="Group_1112" data-name="Group 1112" transform="translate(0 0)">
              <path id="Path_14702" data-name="Path 14702" d="M13.3,19.492a.858.858,0,0,0-.749.992.923.923,0,0,0,.925.688,1.054,1.054,0,0,0,.178-.016,10.705,10.705,0,0,0,5.51-2.634,8.639,8.639,0,0,0,2.47-7.968.925.925,0,0,0-.921-.669h0a12.977,12.977,0,0,0-8.145,3.34,10.4,10.4,0,0,0-.806.832V8.5l0-.01a6.353,6.353,0,0,1,2.158-3.975,11.108,11.108,0,0,1,5.97-2.75,6.962,6.962,0,0,1-2.081,5.69A8.641,8.641,0,0,1,13.3,9.606a.857.857,0,0,0-.749.992.923.923,0,0,0,.925.688,1.054,1.054,0,0,0,.178-.015,10.705,10.705,0,0,0,5.51-2.634A8.639,8.639,0,0,0,21.632.669.925.925,0,0,0,20.711,0h0a12.977,12.977,0,0,0-8.145,3.34A9.127,9.127,0,0,0,10.9,5.358,9.139,9.139,0,0,0,9.24,3.34,12.975,12.975,0,0,0,1.1,0h0A.925.925,0,0,0,.173.669a8.638,8.638,0,0,0,2.47,7.968,10.705,10.705,0,0,0,5.51,2.634,1.054,1.054,0,0,0,.178.015.923.923,0,0,0,.925-.688.857.857,0,0,0-.748-.992A8.642,8.642,0,0,1,4,7.458a6.963,6.963,0,0,1-2.081-5.69,11.108,11.108,0,0,1,5.97,2.75,6.353,6.353,0,0,1,2.158,3.975l0,.01v5.555a10.487,10.487,0,0,0-.806-.832,12.976,12.976,0,0,0-8.145-3.34h0a.925.925,0,0,0-.921.669,8.638,8.638,0,0,0,2.47,7.968,10.7,10.7,0,0,0,5.51,2.634,1.054,1.054,0,0,0,.178.016.923.923,0,0,0,.925-.688.857.857,0,0,0-.748-.992A8.642,8.642,0,0,1,4,17.344a6.963,6.963,0,0,1-2.081-5.69,11.108,11.108,0,0,1,5.97,2.75,6.352,6.352,0,0,1,2.158,3.975l0,.009v5.788a10.486,10.486,0,0,0-.806-.832A12.975,12.975,0,0,0,1.094,20h0a.925.925,0,0,0-.921.669,8.637,8.637,0,0,0,2.47,7.967,10.7,10.7,0,0,0,5.51,2.634,1.055,1.055,0,0,0,.178.016.923.923,0,0,0,.925-.688.856.856,0,0,0-.748-.991A8.643,8.643,0,0,1,4,27.462a6.963,6.963,0,0,1-2.081-5.69,11.106,11.106,0,0,1,5.97,2.75A6.353,6.353,0,0,1,10.043,28.5l0,.01V43.627a.857.857,0,0,0,1.713,0V28.506l0-.01a6.355,6.355,0,0,1,2.159-3.975,11.106,11.106,0,0,1,5.97-2.75,6.962,6.962,0,0,1-2.081,5.69A8.644,8.644,0,0,1,13.3,29.61a.857.857,0,0,0-.749.991.923.923,0,0,0,.925.688,1.054,1.054,0,0,0,.178-.016,10.705,10.705,0,0,0,5.51-2.634,8.638,8.638,0,0,0,2.47-7.967A.925.925,0,0,0,20.71,20h0a12.977,12.977,0,0,0-8.145,3.34,10.444,10.444,0,0,0-.806.832V18.388l0-.009A6.352,6.352,0,0,1,13.919,14.4a11.108,11.108,0,0,1,5.97-2.75,6.962,6.962,0,0,1-2.081,5.69A8.646,8.646,0,0,1,13.3,19.492Z" fill="#fff"/>
            </g>
          </g>
        </g>
      </g>
    </g>
  </g>
</svg>
