<svg height="73" viewBox="0 0 73 73" width="73" xmlns="http://www.w3.org/2000/svg" xmlns:xlink="http://www.w3.org/1999/xlink"><clipPath id="a"><path d="m-2949 1146h73v73h-73z"/></clipPath><clipPath id="b"><path d="m0 0h73v73h-73z"/></clipPath><g clip-path="url(#b)"><g clip-path="url(#a)" fill="#fff" transform="translate(2949 -1146)"><path d="m688.73 518.433h-15.005v-2.843h15.005a2.954 2.954 0 1 0 0-5.907h-15.005v-2.843h15.005a5.8 5.8 0 1 1 0 11.593z" transform="translate(-3596.108 678.514)"/><path d="m648.611 530.563-1.927-2.089 3.545-3.272a9.77 9.77 0 0 1 6.644-2.6h18.891a13.127 13.127 0 0 0 6.1-1.51l25.447-13.416a2.954 2.954 0 1 0 -2.755-5.226l-15.874 8.368-1.326-2.515 15.874-8.368a5.8 5.8 0 1 1 5.405 10.256l-25.445 13.419a15.994 15.994 0 0 1 -7.426 1.836h-18.891a6.936 6.936 0 0 0 -4.716 1.844z" transform="translate(-3588.284 680.705)"/><path d="m636.774 519.086-1.909-2.107 8.027-7.275a4.272 4.272 0 0 0 .574-.628c.878-1.191 3.511-4.009 8.965-4.445a16.981 16.981 0 0 1 6.633.868 12.2 12.2 0 0 0 3.418.652v2.843a14.748 14.748 0 0 1 -4.206-.764 14.507 14.507 0 0 0 -5.619-.765c-4.407.353-6.4 2.615-6.9 3.3a7.121 7.121 0 0 1 -.952 1.048z" transform="translate(-3584.865 679.168)"/><path d="m669.219 496.8-2.819-.365a6.878 6.878 0 0 1 1.161-3.031 6.561 6.561 0 0 1 5.13-2.833 40.74 40.74 0 0 1 5.737.075c3.284.212 5.879.377 8.7-1.511 6.111-4.083 14.4-4.174 18.484-.2a9.217 9.217 0 0 1 2.38 4.783l-2.779.6a6.5 6.5 0 0 0 -1.585-3.342c-2.777-2.7-9.436-3.138-14.921.528-3.625 2.422-6.946 2.207-10.462 1.985a37.585 37.585 0 0 0 -5.351-.077 3.712 3.712 0 0 0 -2.992 1.607 4.055 4.055 0 0 0 -.683 1.781z" transform="translate(-3593.989 686.364)"/><path d="m675.751 484.478c-.01-.326-.185-8.03 3.785-12.116a8.141 8.141 0 0 1 6.061-2.5c4.118 0 5.44-3.382 6.441-6.847a6.722 6.722 0 0 1 .732-1.919 2.152 2.152 0 0 1 2.6-.78c1.787.732 8.633 6 10.736 12.3a10.579 10.579 0 0 1 -.856 9.131l-2.44-1.447a7.747 7.747 0 0 0 .6-6.774c-1.633-4.9-6.61-8.977-8.5-10.214-.048.162-.1.337-.145.5-.77 2.664-2.572 8.9-9.172 8.9a5.323 5.323 0 0 0 -4.022 1.635c-2.607 2.684-3.037 8.166-2.983 10.053z" transform="translate(-3596.693 693.845)"/></g></g></svg>