<svg xmlns="http://www.w3.org/2000/svg" xmlns:xlink="http://www.w3.org/1999/xlink" width="48" height="47" viewBox="0 0 48 47">
  <defs>
    <clipPath id="clip-Artboard_4">
      <rect width="48" height="47"/>
    </clipPath>
  </defs>
  <g id="Artboard_4" data-name="Artboard – 4" clip-path="url(#clip-Artboard_4)">
    <g id="Group_42" data-name="Group 42">
      <g id="Group_35" data-name="Group 35" transform="translate(15.546 13.046)">
        <g id="Group_34" data-name="Group 34">
          <rect id="Rectangle_8" data-name="Rectangle 8" width="1.56" height="1.56" fill="#74b52a"/>
        </g>
      </g>
      <g id="Group_37" data-name="Group 37" transform="translate(4.2 22.267)">
        <g id="Group_36" data-name="Group 36">
          <path id="Path_19" data-name="Path 19" d="M59.617,247.691c-.837-7.148-2.949-15.668-8.251-15.668s-7.415,8.52-8.251,15.668a4.122,4.122,0,0,0,4.091,4.608h8.321a4.121,4.121,0,0,0,4.091-4.608Zm-8.251-14.108c2.89,0,4.611,4.051,5.615,8.1l-.312.312a3.154,3.154,0,0,1-4.356,0,4.639,4.639,0,0,0-6.561,0h0l-.09.09C46.64,237.907,48.38,233.583,51.366,233.583Zm6.07,16.3a2.525,2.525,0,0,1-1.91.858H47.205a2.525,2.525,0,0,1-1.91-.858,2.578,2.578,0,0,1-.636-2.01c.1-.831.239-1.876.435-3.02l1.75-1.75a3.154,3.154,0,0,1,4.356,0,4.635,4.635,0,0,0,6.168.349c.338,1.683.56,3.26.7,4.421A2.579,2.579,0,0,1,57.436,249.881Z" transform="translate(-43.085 -232.023)" fill="#74b52a"/>
        </g>
      </g>
      <g id="Group_39" data-name="Group 39" transform="translate(0 3.125)">
        <g id="Group_38" data-name="Group 38" transform="translate(0 0)">
          <path id="Path_20" data-name="Path 20" d="M25.947.342A22.628,22.628,0,0,0,14.332,1.418,2.983,2.983,0,0,0,10.29.435,2.867,2.867,0,0,0,8.863,2.91v.722H8.125a.73.73,0,0,0-.738.722v2.31a6.926,6.926,0,0,0-5.621,6.744,8.353,8.353,0,0,0,2.547,6.012l.873.85A21.112,21.112,0,0,0,.225,37.178l.015.1A7.2,7.2,0,0,0,7.387,43.34h8.86a7.241,7.241,0,0,0,2.115-.32A22.109,22.109,0,0,0,43.977,25.389,21.709,21.709,0,0,0,25.947.342ZM10.34,2.91a1.477,1.477,0,0,1,2.953,0v.722H10.34ZM8.863,5.076H14.77V6.52H8.863ZM16.247,41.9H7.387A5.731,5.731,0,0,1,1.7,37.071l-.016-.1A19.7,19.7,0,0,1,6.744,20.72a.71.71,0,0,0-.027-.993L5.357,18.4A6.936,6.936,0,0,1,3.242,13.4a5.327,5.327,0,0,1,.329-1.831H14.031V10.13H4.37a5.518,5.518,0,0,1,.5-.573A5.592,5.592,0,0,1,8.806,7.964h6.022a5.5,5.5,0,0,1,5.563,5.44h0A6.936,6.936,0,0,1,18.276,18.4l-1.361,1.331a.71.71,0,0,0-.027.993,19.7,19.7,0,0,1,5.059,16.244l-.017.108A5.73,5.73,0,0,1,16.247,41.9Zm13.3-1.338a21.088,21.088,0,0,1-7.4,1.338c-.492,0-.984-.03-1.477-.064a7.018,7.018,0,0,0,2.715-4.548l.016-.109a21.111,21.111,0,0,0,.211-2.587A13.1,13.1,0,0,0,35.236,23.975l-1.454-.253A11.642,11.642,0,0,1,23.6,33.139a21.149,21.149,0,0,0-5.154-12.867l.873-.854A8.353,8.353,0,0,0,21.867,13.4a6.723,6.723,0,0,0-.817-3.224c.365-.033.734-.051,1.1-.051a11.722,11.722,0,0,1,11.63,9.512l1.454-.253a13.19,13.19,0,0,0-13.084-10.7,13.708,13.708,0,0,0-2.053.167c-.1-.107-.19-.217-.3-.317a7.032,7.032,0,0,0-3.558-1.872V4.354a.73.73,0,0,0-.738-.722H14.77V2.91c0-.036-.01-.072-.011-.106A20.82,20.82,0,0,1,41.46,14.45,20.08,20.08,0,0,1,29.55,40.558Z" transform="translate(0 -0.022)" fill="#74b52a"/>
        </g>
      </g>
      <g id="Group_41" data-name="Group 41" transform="translate(34.028 23.867)">
        <g id="Group_40" data-name="Group 40">
          <path id="Path_21" data-name="Path 21" d="M369.376,231.551l-1.56.092c.014.243.021.487.021.734s-.007.491-.021.734l1.56.092c.016-.274.024-.546.024-.826S369.391,231.825,369.376,231.551Z" transform="translate(-367.816 -231.551)" fill="#74b52a"/>
        </g>
      </g>
      <path id="Path_22" data-name="Path 22" d="M435.563-29a2.694,2.694,0,0,1-1.911-.785,2.655,2.655,0,0,1-.79-1.9.356.356,0,0,0-.356-.356.356.356,0,0,0-.356.356,2.655,2.655,0,0,1-.79,1.9,2.694,2.694,0,0,1-1.911.785.356.356,0,0,0-.356.356.356.356,0,0,0,.356.356,2.7,2.7,0,0,1,2.7,2.69.356.356,0,0,0,.356.356.356.356,0,0,0,.356-.356,2.7,2.7,0,0,1,2.7-2.69.356.356,0,0,0,.356-.356A.356.356,0,0,0,435.563-29Z" transform="translate(-389.756 32.038)" fill="#74b52a"/>
      <path id="Path_23" data-name="Path 23" d="M449.088,413.474a2.68,2.68,0,0,1-2.686-2.667.5.5,0,1,0-1.006,0,2.68,2.68,0,0,1-2.687,2.667.5.5,0,0,0,0,1.006,2.684,2.684,0,0,1,2.687,2.675.5.5,0,1,0,1.006,0,2.684,2.684,0,0,1,2.686-2.675.5.5,0,0,0,0-1.006Z" transform="translate(-401.591 -370.658)" fill="#74b52a"/>
      <path id="Path_24" data-name="Path 24" d="M.469,2.846A1.838,1.838,0,0,1,2.312,4.675a.469.469,0,1,0,.938,0A1.841,1.841,0,0,1,5.094,2.841a.469.469,0,1,0,0-.938A1.838,1.838,0,0,1,3.251.073a.469.469,0,1,0-.938,0A1.841,1.841,0,0,1,.469,1.908a.469.469,0,0,0,0,.938Z" transform="translate(0 3.48)" fill="#74b52a"/>
    </g>
  </g>
</svg>
