<svg xmlns="http://www.w3.org/2000/svg" xmlns:xlink="http://www.w3.org/1999/xlink" width="48" height="47" viewBox="0 0 48 47">
  <defs>
    <clipPath id="clip-path">
      <rect id="Rectangle_1735" data-name="Rectangle 1735" width="48" height="47" transform="translate(788 3933)" fill="#e0e0e0"/>
    </clipPath>
    <clipPath id="clip-Artboard_7">
      <rect width="48" height="47"/>
    </clipPath>
  </defs>
  <g id="Artboard_7" data-name="Artboard – 7" clip-path="url(#clip-Artboard_7)">
    <g id="Mask_Group_29" data-name="Mask Group 29" transform="translate(-788 -3933)" clip-path="url(#clip-path)">
      <g id="Group_16" data-name="Group 16" transform="translate(788 3933)">
        <g id="Group_10" data-name="Group 10" transform="translate(13.714 8.772)">
          <g id="Group_8" data-name="Group 8" transform="translate(0 0)">
            <path id="Path_4" data-name="Path 4" d="M675.323,303.524a10.528,10.528,0,0,1-10.516-10.516,6.452,6.452,0,0,1,.056-.819l1.538.2a5.009,5.009,0,0,0-.043.622,8.966,8.966,0,0,0,17.932,0c0-4.3-6.823-14.768-8.966-17.949-.924,1.371-2.719,4.1-4.453,7.093l-1.341-.777c2.5-4.326,5.133-8.1,5.16-8.136a.775.775,0,0,1,.635-.331h0a.775.775,0,0,1,.636.331c.4.578,9.88,14.209,9.88,19.768A10.528,10.528,0,0,1,675.323,303.524Z" transform="translate(-664.807 -272.908)" fill="#74b52a"/>
          </g>
          <g id="Group_9" data-name="Group 9" transform="translate(10.516 21.715)">
            <path id="Path_5" data-name="Path 5" d="M691.939,334.357v-1.55a5.34,5.34,0,0,0,5.14-3.873l1.491.426a6.889,6.889,0,0,1-6.63,5Z" transform="translate(-691.939 -328.934)" fill="#74b52a"/>
          </g>
        </g>
        <g id="Group_11" data-name="Group 11" transform="translate(33.278 4.112)">
          <path id="Path_6" data-name="Path 6" d="M722.451,271.77h-3.068a.775.775,0,0,1-.775-.775v-2.308H716.3a.775.775,0,0,1-.775-.775v-3.068a.775.775,0,0,1,.775-.775h2.308v-2.308a.775.775,0,0,1,.775-.775h3.068a.775.775,0,0,1,.775.775v2.308h2.308a.775.775,0,0,1,.775.775v3.068a.775.775,0,0,1-.775.775h-2.308V271A.775.775,0,0,1,722.451,271.77Zm-2.293-1.55h1.517v-2.308a.775.775,0,0,1,.775-.775h2.308V265.62h-2.308a.775.775,0,0,1-.775-.775v-2.308h-1.517v2.308a.775.775,0,0,1-.775.775h-2.308v1.517h2.308a.775.775,0,0,1,.775.775Z" transform="translate(-715.525 -260.986)" fill="#74b52a"/>
        </g>
        <g id="Group_12" data-name="Group 12" transform="translate(9.17 16.257)">
          <path id="Path_7" data-name="Path 7" d="M659.821,303.02h-3.068a.775.775,0,0,1-.775-.775v-2.308H653.67a.775.775,0,0,1-.775-.775v-3.068a.775.775,0,0,1,.775-.775h2.308v-2.308a.775.775,0,0,1,.775-.775h3.068a.775.775,0,0,1,.775.775v2.308H662.9a.775.775,0,0,1,.775.775v3.068a.775.775,0,0,1-.775.775H660.6v2.308A.775.775,0,0,1,659.821,303.02Zm-2.293-1.55h1.518v-2.308a.775.775,0,0,1,.775-.775h2.308V296.87h-2.308a.775.775,0,0,1-.775-.775v-2.308h-1.518v2.308a.775.775,0,0,1-.775.775h-2.308v1.517h2.308a.775.775,0,0,1,.775.775Z" transform="translate(-652.895 -292.236)" fill="#74b52a"/>
        </g>
        <g id="Group_13" data-name="Group 13" transform="translate(33.278 36.216)">
          <path id="Path_8" data-name="Path 8" d="M722.451,354.411h-3.068a.775.775,0,0,1-.775-.775v-2.308H716.3a.775.775,0,0,1-.775-.775v-3.068a.775.775,0,0,1,.775-.775h2.308V344.4a.775.775,0,0,1,.775-.775h3.068a.775.775,0,0,1,.775.775v2.308h2.308a.775.775,0,0,1,.775.775v3.068a.775.775,0,0,1-.775.775h-2.308v2.308A.775.775,0,0,1,722.451,354.411Zm-2.293-1.55h1.517v-2.308a.775.775,0,0,1,.775-.775h2.308v-1.517h-2.308a.775.775,0,0,1-.775-.775v-2.308h-1.517v2.308a.775.775,0,0,1-.775.775h-2.308v1.517h2.308a.775.775,0,0,1,.775.775Z" transform="translate(-715.525 -343.627)" fill="#74b52a"/>
        </g>
        <g id="Group_14" data-name="Group 14" transform="translate(0 33.028)">
          <path id="Path_9" data-name="Path 9" d="M636,346.187h-3.068a.775.775,0,0,1-.775-.775V343.1h-2.308a.775.775,0,0,1-.775-.775v-3.068a.775.775,0,0,1,.775-.775h2.308v-2.308a.775.775,0,0,1,.775-.775H636a.775.775,0,0,1,.775.775v2.308h2.308a.775.775,0,0,1,.775.775v3.068a.775.775,0,0,1-.775.775h-2.308v2.308A.775.775,0,0,1,636,346.187Zm-2.293-1.55h1.517v-2.308a.775.775,0,0,1,.775-.775H638.3v-1.518H636a.775.775,0,0,1-.775-.775v-2.308H633.7v2.308a.775.775,0,0,1-.775.775h-2.308v1.518h2.308a.775.775,0,0,1,.775.775Z" transform="translate(-629.071 -335.403)" fill="#74b52a"/>
        </g>
        <g id="Group_15" data-name="Group 15" transform="translate(2.018)">
          <path id="Path_10" data-name="Path 10" d="M641.2,261.161h-3.068a.775.775,0,0,1-.775-.775v-2.308h-2.308a.775.775,0,0,1-.775-.775v-3.068a.775.775,0,0,1,.775-.775h2.308v-2.308a.775.775,0,0,1,.775-.775H641.2a.775.775,0,0,1,.775.775v2.308h2.308a.775.775,0,0,1,.775.775V257.3a.775.775,0,0,1-.775.775h-2.308v2.308A.775.775,0,0,1,641.2,261.161Zm-2.293-1.55h1.517V257.3a.775.775,0,0,1,.775-.775h2.308v-1.517H641.2a.775.775,0,0,1-.775-.775v-2.308H638.91v2.308a.775.775,0,0,1-.775.775h-2.308v1.517h2.308a.775.775,0,0,1,.775.775Z" transform="translate(-634.277 -250.377)" fill="#74b52a"/>
        </g>
      </g>
    </g>
  </g>
</svg>
