<svg xmlns="http://www.w3.org/2000/svg" xmlns:xlink="http://www.w3.org/1999/xlink" width="48" height="47" viewBox="0 0 48 47">
  <defs>
    <clipPath id="clip-path">
      <rect id="Rectangle_1736" data-name="Rectangle 1736" width="48" height="47" transform="translate(82 33)" fill="#eaeaea"/>
    </clipPath>
    <clipPath id="clip-Artboard_5">
      <rect width="48" height="47"/>
    </clipPath>
  </defs>
  <g id="Artboard_5" data-name="Artboard – 5" clip-path="url(#clip-Artboard_5)">
    <g id="Mask_Group_30" data-name="Mask Group 30" transform="translate(-82 -33)" clip-path="url(#clip-path)">
      <g id="Group_80" data-name="Group 80" transform="translate(82 38)">
        <g id="Group_20" data-name="Group 20" transform="translate(0 16.547)">
          <g id="Group_17" data-name="Group 17" transform="translate(18.048 3.517)">
            <path id="Path_11" data-name="Path 11" d="M683.531,514.416h-9.806v-1.858h9.806a1.93,1.93,0,1,0,0-3.86h-9.806V506.84h9.806a3.788,3.788,0,1,1,0,7.576Z" transform="translate(-673.725 -506.84)" fill="#75b62b"/>
          </g>
          <g id="Group_18" data-name="Group 18" transform="translate(5.489)">
            <path id="Path_12" data-name="Path 12" d="M647.944,519.72l-1.26-1.365L649,516.216a6.385,6.385,0,0,1,4.342-1.7h12.345a8.579,8.579,0,0,0,3.986-.986l16.63-8.767a1.93,1.93,0,1,0-1.8-3.415l-10.374,5.469-.866-1.644,10.374-5.468a3.788,3.788,0,1,1,3.533,6.7l-16.63,8.767a10.453,10.453,0,0,1-4.853,1.2H653.343a4.533,4.533,0,0,0-3.082,1.205Z" transform="translate(-646.684 -499.267)" fill="#75b62b"/>
          </g>
          <g id="Group_19" data-name="Group 19" transform="translate(0 2.467)">
            <path id="Path_13" data-name="Path 13" d="M636.112,514.06l-1.247-1.377,5.246-4.754a2.792,2.792,0,0,0,.375-.411,7.8,7.8,0,0,1,5.859-2.905,11.1,11.1,0,0,1,4.335.567,7.972,7.972,0,0,0,2.234.426v1.858a9.637,9.637,0,0,1-2.749-.5,9.481,9.481,0,0,0-3.672-.5,6.03,6.03,0,0,0-4.512,2.156,4.654,4.654,0,0,1-.622.685Z" transform="translate(-634.865 -504.579)" fill="#75b62b"/>
          </g>
        </g>
        <g id="Group_23" data-name="Group 23" transform="translate(14.646)">
          <g id="Group_21" data-name="Group 21" transform="translate(0 12.007)">
            <path id="Path_14" data-name="Path 14" d="M668.242,493.059l-1.842-.239a4.5,4.5,0,0,1,.758-1.981,4.287,4.287,0,0,1,3.353-1.852,26.625,26.625,0,0,1,3.749.049c2.146.138,3.842.246,5.686-.987,3.994-2.668,9.413-2.728,12.08-.131a6.023,6.023,0,0,1,1.555,3.126l-1.816.389a4.249,4.249,0,0,0-1.036-2.184c-1.815-1.767-6.166-2.051-9.751.345-2.369,1.583-4.539,1.443-6.837,1.3a24.569,24.569,0,0,0-3.5-.051,2.426,2.426,0,0,0-1.955,1.05A2.651,2.651,0,0,0,668.242,493.059Z" transform="translate(-666.4 -486.009)" fill="#75b62b"/>
          </g>
          <g id="Group_22" data-name="Group 22" transform="translate(4.341)">
            <path id="Path_15" data-name="Path 15" d="M675.749,476.05c-.007-.213-.121-5.248,2.474-7.918a5.32,5.32,0,0,1,3.961-1.632c2.691,0,3.555-2.21,4.209-4.474a4.394,4.394,0,0,1,.478-1.254,1.407,1.407,0,0,1,1.7-.51c1.168.478,5.642,3.921,7.016,8.04a6.914,6.914,0,0,1-.559,5.967l-1.6-.953a5.063,5.063,0,0,0,.392-4.427c-1.067-3.2-4.32-5.867-5.552-6.675-.032.106-.065.22-.095.326-.5,1.741-1.681,5.817-5.994,5.817a3.479,3.479,0,0,0-2.629,1.069c-1.7,1.754-1.985,5.337-1.949,6.57Z" transform="translate(-675.747 -460.155)" fill="#75b62b"/>
          </g>
        </g>
      </g>
    </g>
  </g>
</svg>
