<svg xmlns="http://www.w3.org/2000/svg" xmlns:xlink="http://www.w3.org/1999/xlink" width="48" height="47" viewBox="0 0 48 47">
  <defs>
    <clipPath id="clip-Artboard_6">
      <rect width="48" height="47"/>
    </clipPath>
  </defs>
  <g id="Artboard_6" data-name="Artboard – 6" clip-path="url(#clip-Artboard_6)">
    <path id="Path_43" data-name="Path 43" d="M68.924,26.457a18.715,18.715,0,0,0-1.674-3.729.725.725,0,0,0-.759-.314,19.613,19.613,0,0,0-3.9,1.423A11.09,11.09,0,0,0,57,29.054a9.9,9.9,0,0,0-.322,6.131,19.833,19.833,0,0,0-3.752-3.195A28.373,28.373,0,0,0,49.667,27.1c-.571-.686-1.669.175-1.092.868a27.536,27.536,0,0,1,2.6,3.737l-6.41-1.223-6.09-8.128a10.141,10.141,0,0,1,1.775.177,12.253,12.253,0,0,1,5.5,2.772c.7.58,1.6-.476.913-1.048a13.649,13.649,0,0,0-6.14-3.075c-3.224-.617-6.985.193-10.876,2.345a28.069,28.069,0,0,0-4.921,3.439.717.717,0,0,0-.084.945,28,28,0,0,0,3.156,4.847A21.756,21.756,0,0,0,31.319,36.1q-.492.4-.956.846a15.847,15.847,0,0,0-3.74,5.475,15.666,15.666,0,0,0,1.644,14.82,16.184,16.184,0,0,0,7.36,5.832.691.691,0,0,0,.529-1.276,14.955,14.955,0,0,1-3.044-1.638,7.617,7.617,0,0,0-1.195-5.43c-.223-.34.444-1.675.842-2.472a12.752,12.752,0,0,0,1.034-2.472,1.861,1.861,0,0,0-.685-2.064A5.252,5.252,0,0,0,31.435,47a3.646,3.646,0,0,1-.919-.352,9.148,9.148,0,0,1-1.192-1.9,11.722,11.722,0,0,0-1.286-2.068,14.68,14.68,0,0,1,4.442-5.726,12.475,12.475,0,0,0,5.93,2.156c-2.487,1.885-3.292,4.293-2.142,6.606,1.343,2.7,4.107,2.269,6.545,1.889.422-.066.859-.134,1.277-.185.157-.019.2.023.236.05.534.465.518,2.684.507,4.3-.016,2.242-.03,4.359.823,5.447a2.166,2.166,0,0,0,1.767.838,3.613,3.613,0,0,0,1.389-.308c2.123-.889,4.329-3.566,3.992-5.683-.294-1.851-.489-3.075-.03-4.061.424-.913,1.45-1.757,3.47-2.835A14.312,14.312,0,0,1,52.13,58.713,15.145,15.145,0,0,1,40.1,62.771a.689.689,0,0,0-.154,1.369A16.579,16.579,0,0,0,53.114,59.7,15.643,15.643,0,0,0,58,48.5a15.831,15.831,0,0,0-7.393-13.506c.93-.649,1.622-1.209,2.006-1.535a18.529,18.529,0,0,1,4.306,4.223A17.852,17.852,0,0,1,60.17,51.3a18.821,18.821,0,0,1-33.616,7.667,17.85,17.85,0,0,1-3.246-13.622.7.7,0,0,0-1.388-.224,19.2,19.2,0,0,0,3.49,14.649,20.023,20.023,0,0,0,13.056,7.943,20.806,20.806,0,0,0,3.316.267A20.239,20.239,0,0,0,53.439,64.3a19.472,19.472,0,0,0,8.12-12.773,19.13,19.13,0,0,0-1.4-11.046,20.536,20.536,0,0,0,3.245-1.25A11.089,11.089,0,0,0,69,34.013,10.727,10.727,0,0,0,68.924,26.457ZM28.079,45.389a8.562,8.562,0,0,0,1.533,2.31,4.079,4.079,0,0,0,1.409.612c1.375.414,1.535.617,1.4,1.149a11.88,11.88,0,0,1-.93,2.191c-.727,1.455-1.413,2.828-.763,3.821A6.441,6.441,0,0,1,31.8,59.126,14.471,14.471,0,0,1,27.46,44.278C27.667,44.626,27.885,45.029,28.079,45.389ZM62.127,31.859l-2-4.742a13.194,13.194,0,0,1,3.064-2.032,19.021,19.021,0,0,1,2.224-.916ZM66.713,24.7a18.238,18.238,0,0,1,.88,2.2,12.909,12.909,0,0,1,.637,3.319l-4.687,1.892ZM58.3,29.59a6.523,6.523,0,0,1,.786-1.336l2.277,5.4-2.043,4.78a18.043,18.043,0,0,1-.912-2.267A9.649,9.649,0,0,1,58.3,29.59Zm4.509,8.393a18.929,18.929,0,0,1-2.154.892l2.12-4.959,5.4-2.179a6.529,6.529,0,0,1-.471,1.74C66.747,35.684,64.513,37.146,62.807,37.983Zm-25.376-.392c-.249-.048-.494-.106-.736-.172l7.789-5.586L50.9,33.056C48.561,34.857,42.875,38.634,37.431,37.591Zm-7.118-4.308a26.828,26.828,0,0,1-3.588-4.837L34.887,30ZM31.755,24.1l3.415,4.557-8.214-1.567A27.827,27.827,0,0,1,31.755,24.1Zm5.451,4.945-4.14-5.525A16.1,16.1,0,0,1,37,22.452l5.727,7.642Zm-.438,1.319L42.6,31.474l-7.491,5.372a14.572,14.572,0,0,1-3.8-2.576Zm19.1,13.445c-2.537,1.322-3.779,2.361-4.369,3.628-.633,1.361-.4,2.821-.08,4.842.19,1.192-1.258,3.411-3.155,4.206-.7.294-1.2.259-1.487-.1-.559-.712-.544-2.867-.532-4.6.017-2.4.031-4.464-.979-5.343a1.684,1.684,0,0,0-1.344-.388c-.442.054-.891.124-1.325.192-2.587.4-4.215.565-5.058-1.131-1.366-2.747,1.4-4.782,2.652-5.53a4.449,4.449,0,0,0,.712-.531,20.73,20.73,0,0,0,8.437-3.217A14.679,14.679,0,0,1,55.863,43.807Z" transform="translate(-21.646 -20.979)" fill="#74b52a"/>
  </g>
</svg>
