<svg xmlns="http://www.w3.org/2000/svg" width="159" height="42.196" viewBox="0 0 159 42.196">
  <g id="Group_91" data-name="Group 91" transform="translate(-487.843 -12.898)">
    <g id="Group_86" data-name="Group 86" transform="translate(559.907 12.898)">
      <path id="Path_62" data-name="Path 62" d="M539.185,23.6l-12.174-.014s-2.944-.334-2.944,2.316v8.3l18.064-.01V25.927C542.131,23.252,539.9,23.6,539.185,23.6ZM527.011,32.19V26.158c0-.574.63-.559.63-.559h10.976s.567-.1.567.724V32.19Zm14.033-10.153H525.112c-1.956,0-1.535-2.079-1.071-2.673S527.8,12.9,527.8,12.9h3.625s-3.377,5.979-3.524,6.164-.435.91.451.91h10.052c.743,0,.513-.885.513-.885l-.907-3.757h2.948s.668,2.612.765,3.143C541.833,19.054,542.815,22.037,541.044,22.037Z" transform="translate(-523.651 -12.898)" fill="#1a1311"/>
      <path id="Path_63" data-name="Path 63" d="M557.611,31.66V25.832h6.816V23.546h-6.816V18.279h7.1V15.993h-7.1V12.97H554.6v3.023H551.2a13.3,13.3,0,0,0,.278-2.053h-3.3s-.03,5.007-2.049,6.891v2.117a9.594,9.594,0,0,0,4.321-4.669h4.16v5.267H548.09v2.286H554.6V31.66h-8.15v2.4h18.607v-2.4Z" transform="translate(-500.898 -12.825)" fill="#1a1311"/>
      <path id="Path_64" data-name="Path 64" d="M562.374,17.759h2.19v-2.29h-2.19v-1.88h-2.534v1.88H557.4v2.29h2.443c0,2.312,0,4.4,0,6.209a11.621,11.621,0,0,1-2.65.962l-.024,3.578a21.613,21.613,0,0,0,2.679-1.421c0,2.824,0,4.462,0,4.538,0,.376-.058.827-.753.827h-1.334V34.39h2.854c1.858,0,1.757-2.077,1.757-2.689V25.224a11.524,11.524,0,0,0,1.588-1.7V20.7a11.477,11.477,0,0,1-1.588,1.59Zm9.589,12.858a17.575,17.575,0,0,0,3.3-7.535c.217-1.177-.175-1.95-1-1.95H571.7V18.238h3.932V16.02H571.7V13.2h-2.793V16.02h-3.633v2.218h3.633v2.894h-3.655a13.117,13.117,0,0,0,3.717,9.66,8.361,8.361,0,0,1-4.5,1.66V34.39s4.337,0,6.013-2.252a11.119,11.119,0,0,0,5.951,2.246V32.452A7.859,7.859,0,0,1,571.964,30.617Zm-1.489-1.538c-1.88-1.747-2.4-4.377-2.8-5.73h4.856A15.541,15.541,0,0,1,570.475,29.079Z" transform="translate(-489.714 -12.593)" fill="#1a1311"/>
      <path id="Path_65" data-name="Path 65" d="M554.087,15.6V13.5H540.241v2.1h4.307V17.71h-2.006s-1.827-.177-1.827,2.079V34.038h13.166V19.58A1.7,1.7,0,0,0,552,17.71h-1.936V15.6ZM543.94,19.6h.608v4.2c0,.853-.644.817-.644.817h-.569V20.295C543.334,19.548,543.94,19.6,543.94,19.6Zm5.635,6.989h1.682v1.777h-7.923V26.586h1.706c.481,0,1.715-.143,1.715-1.976,0-.747,0-2.916,0-5.013h1.113c0,2.1,0,4.266,0,5.013C547.86,26.443,549.092,26.586,549.575,26.586Zm-6.241,5.565v-1.9h7.923v1.9ZM550.617,19.6s.64-.121.64.819v4.194h-.545s-.644.036-.644-.817V19.6Zm-3.868-1.886V15.6h1.119c0,.505,0,1.252,0,2.107Zm-6.5,8.7h-2.807s-.37,4.794-2.87,6.319v1.429C539.448,32.991,540.253,26.414,540.253,26.414Zm-5.788-6.945h2.962a14.061,14.061,0,0,1,2.332,4.667h-2.548A20.148,20.148,0,0,0,534.465,19.469Zm.261-6.192h2.983a14.054,14.054,0,0,1,2.336,4.667h-2.57A20.2,20.2,0,0,0,534.727,13.277Z" transform="translate(-512.703 -12.514)" fill="#1a1311"/>
    </g>
    <g id="Group_89" data-name="Group 89" transform="translate(559.425 37.071)">
      <path id="Path_66" data-name="Path 66" d="M534.758,25.056l-2.824,17.372h-2.558L532.2,25.056Z" transform="translate(-517.372 -24.761)" fill="#1a1311"/>
      <path id="Path_67" data-name="Path 67" d="M545.9,29.732l-.352,2.19h-5.516l.352-2.19Z" transform="translate(-506.584 -20.027)" fill="#1a1311"/>
      <path id="Path_68" data-name="Path 68" d="M547.347,27.686h-4.1l.439-2.63H554.52l-.443,2.63H549.93l-2.383,14.741h-2.582Z" transform="translate(-503.33 -24.761)" fill="#1a1311"/>
      <path id="Path_69" data-name="Path 69" d="M557.475,34.7h-5.337l-.839,5.182h6l-.421,2.55H548.3l2.824-17.372h8.251l-.421,2.552h-5.669l-.751,4.564H557.9Z" transform="translate(-498.213 -24.761)" fill="#1a1311"/>
      <path id="Path_70" data-name="Path 70" d="M565.271,25.056l-1.149,7.009h6.046l1.147-7.009H573.9l-2.823,17.372h-2.58l1.256-7.7h-6.043l-1.26,7.7H559.89l2.819-17.372Z" transform="translate(-486.479 -24.761)" fill="#1a1311"/>
      <g id="Group_87" data-name="Group 87" transform="translate(0 0.139)">
        <path id="Path_71" data-name="Path 71" d="M526.3,25.158l-2.886,17.148s10.034,2.278,10.612-4.919c0,0,.3-3.143-2.387-4.132a4.556,4.556,0,0,0,3.085-3.975C534.885,25.722,532.025,24.474,526.3,25.158Zm5.013,12.1c-.366,3.906-5.011,2.9-5.011,2.9l.9-5.732C531.83,33.957,531.311,37.259,531.311,37.259Zm.771-7.742c-.157,3.327-4.508,2.727-4.508,2.727l.783-4.764C532.44,26.634,532.082,29.517,532.082,29.517Z" transform="translate(-523.412 -24.979)" fill="#1a1311"/>
      </g>
      <g id="Group_88" data-name="Group 88" transform="translate(18.369)">
        <path id="Path_72" data-name="Path 72" d="M540.23,24.917c-5.7.282-7.158,6.792-7.158,6.792-2.61,11.018,5.22,11.224,5.22,11.224,6.8-.07,7.829-8.243,7.829-8.243C547.624,24.295,540.23,24.917,540.23,24.917ZM543.275,35.1s-.912,5.474-5.22,5.2c0,0-4.192-.555-2.411-7.9,0,0,1.107-4.916,4.705-4.987C540.349,27.412,544.935,27.277,543.275,35.1Z" transform="translate(-532.539 -24.909)" fill="#1a1311"/>
      </g>
      <path id="Path_73" data-name="Path 73" d="M566,25.637l-.648,2.493s-6.822-3.325-8.662,5.51c0,0-1.246,9.145,7.116,5.923l.24,2.5s-9.372,3.639-10.2-6.134c0,0-.473-6.547,4.568-9.769A8.158,8.158,0,0,1,566,25.637Z" transform="translate(-492.614 -24.897)" fill="#1a1311"/>
    </g>
    <g id="Group_90" data-name="Group 90" transform="translate(487.843 17.048)">
      <path id="Path_74" data-name="Path 74" d="M527.621,51.3H506.405v-.163c1.151-.5,2.1-2.131,2.55-4.3L515.1,14.96h8.1l-5.548,29.072h9.767a3.877,3.877,0,0,0,3.176-2.642h.109Z" transform="translate(-469.049 -14.96)" fill="#b80009"/>
      <path id="Path_75" data-name="Path 75" d="M489.165,14.96l-1.322,7.259h7.521L489.8,51.3h10.739v-.179c-2.018-.262-2.1-2.53-1.839-4l4.759-24.9h10.469L508.374,51.3H519.1v-.179c-2.016-.262-2.1-2.53-1.829-4,.075-.443,2.966-15.54,4.755-24.9h7.368l1.322-7.259Z" transform="translate(-487.843 -14.96)" fill="#b80009"/>
    </g>
  </g>
</svg>
