<svg xmlns="http://www.w3.org/2000/svg" xmlns:xlink="http://www.w3.org/1999/xlink" width="70" height="77" viewBox="0 0 70 77">
  <defs>
    <clipPath id="clip-path">
      <rect id="Rectangle_1796" data-name="Rectangle 1796" width="70" height="77" transform="translate(1260 3525)" fill="#c15555" opacity="0.383"/>
    </clipPath>
  </defs>
  <g id="Mask_Group_57" data-name="Mask Group 57" transform="translate(-1260 -3525)" clip-path="url(#clip-path)">
    <g id="medal" transform="matrix(0.966, -0.259, 0.259, 0.966, 1260, 3533.621)">
      <path id="Path_14694" data-name="Path 14694" d="M10.181,0,.1,22.465A1.092,1.092,0,0,0,1.224,24l5.65-.675,3.256,4.669a1.092,1.092,0,0,0,1.892-.178L22.23,5.068Z" transform="translate(3.402 45.528)" fill="#ff507d"/>
      <path id="Path_14695" data-name="Path 14695" d="M12.049,0,22.133,22.465A1.092,1.092,0,0,1,21.007,24l-5.65-.675L12.1,27.991a1.092,1.092,0,0,1-1.892-.178L0,5.068Z" transform="translate(30.86 45.528)" fill="#d23c69"/>
      <path id="Path_14696" data-name="Path 14696" d="M11.958,16.335,4.863.527,4.626,0a5.348,5.348,0,0,0-2.47,2.487A6.5,6.5,0,0,1,.331,4.509a.816.816,0,0,0-.259.99L5.32,17.208l5.512.659A1.092,1.092,0,0,0,11.958,16.335Z" transform="translate(41.035 51.658)" fill="#ff507d"/>
      <path id="Path_14697" data-name="Path 14697" d="M10.181,0,.1,22.465A1.092,1.092,0,0,0,1.224,24l5.512-.659L11.819,12a1.253,1.253,0,0,1,1.577-.638,5.46,5.46,0,0,0,1.765.3,5.573,5.573,0,0,0,.864-.068l3.054-.48h.032a.344.344,0,0,1,.194.046l.153.093L22.23,5.068Z" transform="translate(3.402 45.528)" fill="#d23c69"/>
      <path id="Path_14698" data-name="Path 14698" d="M56.061,29.781l-1.612,2.644a2.949,2.949,0,0,0-.4,1.993l.48,3.054a2.948,2.948,0,0,1-1.178,2.842l-2.5,1.818a2.947,2.947,0,0,0-1.131,1.691L49,46.828A2.948,2.948,0,0,1,46.827,49l-3.006.727a2.948,2.948,0,0,0-1.691,1.131l-1.817,2.5a2.948,2.948,0,0,1-2.842,1.178l-3.053-.48a2.948,2.948,0,0,0-1.993.4l-2.643,1.612a2.948,2.948,0,0,1-3.069,0l-2.644-1.612a2.949,2.949,0,0,0-1.993-.4l-3.054.48a2.948,2.948,0,0,1-2.842-1.178l-1.818-2.5a2.947,2.947,0,0,0-1.691-1.131L9.665,49a2.948,2.948,0,0,1-2.172-2.172L6.765,43.82A2.948,2.948,0,0,0,5.634,42.13l-2.5-1.817A2.948,2.948,0,0,1,1.958,37.47l.48-3.053a2.948,2.948,0,0,0-.4-1.993L.431,29.781a2.948,2.948,0,0,1,0-3.069l1.612-2.644a2.949,2.949,0,0,0,.4-1.993l-.48-3.054a2.948,2.948,0,0,1,1.178-2.842l2.5-1.818a2.947,2.947,0,0,0,1.131-1.691l.728-3.007A2.948,2.948,0,0,1,9.665,7.492l3.006-.727a2.948,2.948,0,0,0,1.691-1.131l1.817-2.5a2.948,2.948,0,0,1,2.842-1.178l3.053.48a2.947,2.947,0,0,0,1.993-.4L26.711.431a2.948,2.948,0,0,1,3.069,0l2.644,1.612a2.949,2.949,0,0,0,1.993.4l3.054-.48a2.948,2.948,0,0,1,2.842,1.178l1.818,2.5a2.947,2.947,0,0,0,1.691,1.131l3.007.728A2.948,2.948,0,0,1,49,9.665l.727,3.006a2.948,2.948,0,0,0,1.131,1.691l2.5,1.817a2.948,2.948,0,0,1,1.178,2.842l-.48,3.053a2.948,2.948,0,0,0,.4,1.993l1.612,2.643A2.948,2.948,0,0,1,56.061,29.781Z" transform="translate(0 0)" fill="#ffc850"/>
      <path id="Path_14699" data-name="Path 14699" d="M11.257,20.443A30.589,30.589,0,0,1,19.025.036h0A2.947,2.947,0,0,0,16.18,1.214l-1.817,2.5a2.948,2.948,0,0,1-1.691,1.131l-3.006.727A2.948,2.948,0,0,0,7.494,7.743l-.728,3.007A2.948,2.948,0,0,1,5.635,12.44l-2.5,1.818A2.948,2.948,0,0,0,1.958,17.1l.48,3.054a2.947,2.947,0,0,1-.4,1.993L.431,24.79a2.948,2.948,0,0,0,0,3.069L2.043,30.5a2.948,2.948,0,0,1,.4,1.993l-.48,3.053A2.947,2.947,0,0,0,3.136,38.39l2.5,1.817A2.948,2.948,0,0,1,6.765,41.9L7.492,44.9a2.948,2.948,0,0,0,2.172,2.172l3.007.728a2.948,2.948,0,0,1,1.691,1.131l1.817,2.5a2.948,2.948,0,0,0,2.842,1.178l3.054-.48a2.947,2.947,0,0,1,1.993.4l2.644,1.612a2.948,2.948,0,0,0,3.069,0l2.643-1.612a2.948,2.948,0,0,1,1.993-.4l3.053.48a2.948,2.948,0,0,0,2.842-1.178l.23-.316A30.709,30.709,0,0,1,11.257,20.443Z" transform="translate(0 1.922)" fill="#e1a546"/>
      <circle id="Ellipse_43" data-name="Ellipse 43" cx="20.91" cy="20.91" r="20.91" transform="translate(7.337 7.336)" fill="#ffdc64"/>
      <path id="Path_14700" data-name="Path 14700" d="M23.177,24.446A18.281,18.281,0,0,1,8.48,1.605,1.266,1.266,0,0,0,6.448.3,18.285,18.285,0,1,0,32.222,26.076a1.266,1.266,0,0,0-1.3-2.033A18.314,18.314,0,0,1,23.177,24.446Z" transform="translate(9.95 14.018)" fill="#ffc850"/>
      <path id="Path_14701" data-name="Path 14701" d="M14.212,22.741,6.605,27a1.063,1.063,0,0,1-1.561-1.135l1.7-8.55L.343,11.4a1.063,1.063,0,0,1,.6-1.836L9.6,8.533,13.247.618a1.063,1.063,0,0,1,1.93,0l3.651,7.916L27.485,9.56a1.063,1.063,0,0,1,.6,1.836l-6.4,5.919,1.7,8.55A1.063,1.063,0,0,1,21.819,27Z" transform="translate(14.034 14.297)" fill="#fcfc13"/>
      <g id="Group_1140" data-name="Group 1140" transform="translate(14.034 14.302)">
        <path id="Path_14702" data-name="Path 14702" d="M14.193,0a1.045,1.045,0,0,0-.946.612L9.6,8.528.939,9.555a1.063,1.063,0,0,0-.6,1.836l6.4,5.919-1.7,8.55a1.063,1.063,0,0,0,1.561,1.135l1.2-.674L9.85,16.989a1.405,1.405,0,0,0-.3-1.2L7.391,13.213a.77.77,0,0,1,.4-1.241l3.451-.881A1.405,1.405,0,0,0,12.273,10Z" fill="#fffab4"/>
        <path id="Path_14703" data-name="Path 14703" d="M8.829,5.407,4.63.742A2.24,2.24,0,0,0,1.9.267L0,1.291,7.607,5.549A1.044,1.044,0,0,0,8.829,5.407Z" transform="translate(14.212 21.445)" fill="#fffab4"/>
      </g>
    </g>
  </g>
</svg>
