<svg xmlns="http://www.w3.org/2000/svg" xmlns:xlink="http://www.w3.org/1999/xlink" width="73" height="73" viewBox="0 0 73 73">
  <defs>
    <clipPath id="clip-path">
      <rect id="Rectangle_1772" data-name="Rectangle 1772" width="73" height="73" transform="translate(-11869 -232)" fill="#d8bbbb"/>
    </clipPath>
  </defs>
  <g id="Mask_Group_59" data-name="Mask Group 59" transform="translate(11869 232)" clip-path="url(#clip-path)">
    <path id="XMLID_373_" d="M114.578,26.774c0-.628-.342-1.42-1.749-2a1.846,1.846,0,0,0,.12-.652,1.526,1.526,0,0,0-.63-1.22c-1.293-.991-4.442-.6-5.68-.275a9.185,9.185,0,0,0-2.3.8l-.1.054c-.133-.008-.266-.012-.4-.012A5.789,5.789,0,0,0,99.16,25.8q-1.019.034-2.015.151A20.732,20.732,0,0,0,99.8,21.228a10.146,10.146,0,0,0,2.951-3.55,12.376,12.376,0,0,1,2.081-3.106c.279-.318.6-.678.959-1.147a18.182,18.182,0,0,0,1.3-1.9c1.39-2.377,1.814-4.649,1.133-6.079a2.445,2.445,0,0,0-1.888-1.4,3.688,3.688,0,0,0-1.163.018c-.537-2.009-1.614-3.292-2.991-3.5-1.416-.218-2.789.714-3.806,2.536a3.519,3.519,0,0,0-1.257-.467,2.446,2.446,0,0,0-2.221.769c-1.079,1.159-1.357,3.454-.744,6.138.073.32.16.648.258.975v0a21.99,21.99,0,0,0,.975,2.631,13.517,13.517,0,0,1,1.076,3.665,10.463,10.463,0,0,0,1.35,3.9,16.664,16.664,0,0,1-3.988,5.866,24.5,24.5,0,0,0-9.547,4.944,24.307,24.307,0,0,0,.835-3.787,13.393,13.393,0,0,0,2.709-5.6A17.3,17.3,0,0,1,89.58,17.2c.261-.512.557-1.092.877-1.828a24.533,24.533,0,0,0,1.07-2.927c1.01-3.509.831-6.544-.478-8.118a2.986,2.986,0,0,0-2.656-1.088,4.854,4.854,0,0,0-1.734.542C85.324,1.23,83.516-.162,81.691.015,79.807.2,78.37,1.957,77.718,4.8a4.663,4.663,0,0,0-2.057-.321,2.987,2.987,0,0,0-2.4,1.579c-.982,1.8-.573,4.809,1.093,8.058.2.392.42.786.652,1.172l.008.014a29.848,29.848,0,0,0,2.165,3.136A18.859,18.859,0,0,1,79.9,23.021a13.631,13.631,0,0,0,3.176,4.7A22.429,22.429,0,0,1,79.7,36.589c-.087.128-.425.637-.447.683a24.456,24.456,0,0,0-2.421,5.015c-.022.051-.462,1.44-.627,2.1a24.3,24.3,0,0,0-.725,5.9v.485L71.89,34.011a5.523,5.523,0,0,0-1-4.667l-.318-1.482a5.831,5.831,0,0,0,3.192-3.681l.1-.339A5.75,5.75,0,0,0,72.6,18.225a1.015,1.015,0,0,0-.965-.289A5.545,5.545,0,0,0,68.8,19.611L67.9,15.389a6.441,6.441,0,0,0,1.777-5.551l-.06-.4A6.387,6.387,0,0,0,65.681,4.4a1.015,1.015,0,0,0-1,.151,6.386,6.386,0,0,0-2.264,5.981l.06.4A6.433,6.433,0,0,0,65.9,15.741l.184.859-.126-.072a5.75,5.75,0,0,0-5.758-.061,1.015,1.015,0,0,0-.5.872,5.747,5.747,0,0,0,2.933,4.949l.312.18a5.884,5.884,0,0,0,4.261.657,5.78,5.78,0,0,0,.791,3.91,5.549,5.549,0,0,0-3.3-.248,1.015,1.015,0,0,0-.736.688,5.75,5.75,0,0,0,1.365,5.593l.242.26a5.723,5.723,0,0,0,4.489,1.788l5.433,25.34V72.514a1.015,1.015,0,1,0,2.03,0V60.369c0-.014,0-.027,0-.041V50.285a22.245,22.245,0,0,1,1.139-7.041,22.43,22.43,0,0,1,7.922-5.008,8.944,8.944,0,0,0,4.856,5.983l.526.256a8.833,8.833,0,0,0,8.83-.522,1.015,1.015,0,0,0,.44-.906,8.832,8.832,0,0,0-5.044-7.264l-.527-.257a8.848,8.848,0,0,0-8.7.434,24.413,24.413,0,0,0-6.431,3.131c.179-.309.805-1.279.924-1.464a22.508,22.508,0,0,1,17.734-9.8,5.792,5.792,0,0,0,4.661,2.283h.018c.133,0,.266-.005.4-.014l.1.053a9.172,9.172,0,0,0,2.3.784c1.24.322,4.392.69,5.678-.309a1.526,1.526,0,0,0,.622-1.223,1.829,1.829,0,0,0-.1-.587C114.25,28.18,114.58,27.386,114.578,26.774Zm-12.7-24.21c.461.071,1.049.788,1.384,2.2a8.926,8.926,0,0,0-2.052,1.6,11.379,11.379,0,0,0-1.262-1.888C100.607,3.124,101.387,2.488,101.882,2.563ZM96.171,9.206l-.029-.126c-.508-2.225-.226-3.791.251-4.3a.409.409,0,0,1,.322-.154.688.688,0,0,1,.1.009c.775.119,2.04,1.363,2.989,3.466A4.715,4.715,0,0,1,96.171,9.206Zm1.09,3.132c-.148-.343-.3-.692-.458-1.115a5.913,5.913,0,0,0,5.059-2.446c1.357-1.99,3.3-2.863,4.174-2.729a.422.422,0,0,1,.363.266c.3.632.1,2.21-1.052,4.181h0a16.153,16.153,0,0,1-1.154,1.686c-.326.42-.608.741-.88,1.051a14.374,14.374,0,0,0-2.365,3.524,8.661,8.661,0,0,1-.472.81,17.935,17.935,0,0,0,.269-2.089.625.625,0,1,0-1.246-.086,16.669,16.669,0,0,1-.507,3.09,11.9,11.9,0,0,1-.518-2.025A15.368,15.368,0,0,0,97.261,12.338ZM63.947,20.706l-.3-.173a3.792,3.792,0,0,1-1.867-2.573,3.8,3.8,0,0,1,3.169.331l.2.115.1.058a4.064,4.064,0,0,1,1.768,2.609A3.825,3.825,0,0,1,63.947,20.706Zm2.65-6.892a4.427,4.427,0,0,1-2.109-3.191l-.06-.4A4.427,4.427,0,0,1,65.5,6.553a4.427,4.427,0,0,1,2.109,3.191l.06.4A4.429,4.429,0,0,1,66.6,13.813ZM70,33.085a3.693,3.693,0,0,1-2.955-1.145l-.241-.258a3.793,3.793,0,0,1-1.036-3.005,3.789,3.789,0,0,1,2.93,1.235s.383.414.448.495l.02.025A3.636,3.636,0,0,1,70,33.085Zm-.255-7.077a3.8,3.8,0,0,1-.409-3.154l.01-.033c.008-.023.015-.047.021-.07l.07-.234a3.8,3.8,0,0,1,2.075-2.409,3.8,3.8,0,0,1,.408,3.155l-.1.337A3.794,3.794,0,0,1,69.743,26.008Zm23.1,16.642-.527-.256a7.014,7.014,0,0,1-3.456-3.638,13.691,13.691,0,0,0,1.748.982,8.826,8.826,0,0,0,3.853.891,8.265,8.265,0,0,0,3.516-.773,6.494,6.494,0,0,1,1.154,2.735A6.867,6.867,0,0,1,92.845,42.65Zm1.922-5.3.526.256a7.269,7.269,0,0,1,1.82,1.259,7.373,7.373,0,0,1-5.958-.254,9.651,9.651,0,0,1-2.26-1.408A6.917,6.917,0,0,1,94.767,37.353ZM81.887,2.036c.969-.094,2.168,1.06,3.092,2.929A12.063,12.063,0,0,0,82.4,8.346,14.986,14.986,0,0,0,79.588,5.79C79.981,3.616,80.873,2.135,81.887,2.036Zm-5.5,11.576q-.116-.211-.224-.422c-1.5-2.924-1.543-5.152-1.118-6.158a.9.9,0,0,1,.971-.539c1.26,0,3.442,1.316,5.473,3.94C80.477,12.437,78.456,13.1,76.387,13.612Zm5.362,8.576A20.769,20.769,0,0,0,78.79,17.2c-.4-.52-.81-1.052-1.294-1.776,2.417-.651,5-1.725,6.15-4.873a9.983,9.983,0,0,1,3.11-4.436,1.009,1.009,0,0,0,.145-.108,3.654,3.654,0,0,1,1.688-.742.951.951,0,0,1,.9.365c.7.84,1,3.1.088,6.259a22.483,22.483,0,0,1-.98,2.678c-.3.679-.565,1.206-.824,1.716a19.185,19.185,0,0,0-1.92,5.4,12.059,12.059,0,0,1-.907,2.594A24.332,24.332,0,0,0,84.552,20a.625.625,0,0,0-1.229.224,23.058,23.058,0,0,1,.352,5.2A13.92,13.92,0,0,1,81.749,22.188Zm19.206,4.61a3.731,3.731,0,0,1,2.366-1.265c-.026.416-.039.837-.037,1.259s.016.842.045,1.258A3.734,3.734,0,0,1,100.954,26.8Zm10.053.522a1.015,1.015,0,0,0-.415,1.739q.057.051.1.1a9.394,9.394,0,0,1-3.522-.185,8.226,8.226,0,0,1-1.78-.572c-.052-.529-.079-1.07-.081-1.613s.022-1.084.072-1.614a8.238,8.238,0,0,1,1.776-.583,9.38,9.38,0,0,1,3.52-.206c-.052.052-.114.109-.189.172a1.015,1.015,0,0,0,.448,1.771,5.164,5.164,0,0,1,1.419.468A5.054,5.054,0,0,1,111.007,27.32Z" transform="translate(-11916.491 -231.681)" fill="#fff"/>
  </g>
</svg>
