<svg xmlns="http://www.w3.org/2000/svg" xmlns:xlink="http://www.w3.org/1999/xlink" width="73" height="73" viewBox="0 0 73 73">
  <defs>
    <clipPath id="clip-path">
      <rect id="Rectangle_1774" data-name="Rectangle 1774" width="73" height="73" transform="translate(-11866 50)" fill="#d8bbbb"/>
    </clipPath>
  </defs>
  <g id="Mask_Group_57" data-name="Mask Group 57" transform="translate(11866 -50)" clip-path="url(#clip-path)">
    <g id="Outlines" transform="translate(-11864.003 52.999)">
      <path id="Path_14694" data-name="Path 14694" d="M67.864,41.067a20.725,20.725,0,0,0-6.434-7.04A24.578,24.578,0,0,0,65.8,19.381a1.1,1.1,0,0,0-.528-.915A24.743,24.743,0,0,0,50.486,14.9a1.1,1.1,0,0,0,.185,2.191A22.513,22.513,0,0,1,63.6,20.041a21.621,21.621,0,0,1-10.554,18.8A20.812,20.812,0,0,1,39.106,41.29q.737-.582,1.43-1.217a24.67,24.67,0,0,0,14.157-12.28,1.1,1.1,0,0,0-1.969-.983,22.431,22.431,0,0,1-8.69,9.253,23.855,23.855,0,0,0,1.821-3.091A1.1,1.1,0,1,0,43.874,32,22.1,22.1,0,0,1,36.1,40.747V29.5a1.1,1.1,0,0,0-2.2,0V40.751A21.525,21.525,0,0,1,24,22.9,21.625,21.625,0,0,1,35,4.363,21.625,21.625,0,0,1,46,22.9a20.613,20.613,0,0,1-.66,5.149,1.1,1.1,0,1,0,2.13.55,22.825,22.825,0,0,0,.73-5.7A23.066,23.066,0,0,0,44,9.716,18.349,18.349,0,0,1,52.474,7.5a18.746,18.746,0,0,1,1.65,4.011,1.1,1.1,0,1,0,2.119-.593,20.9,20.9,0,0,0-2.186-5.083,1.1,1.1,0,0,0-.931-.535A20.863,20.863,0,0,0,42.649,7.963a24.992,24.992,0,0,0-7.12-5.83,1.1,1.1,0,0,0-1.056,0A25,25,0,0,0,27.7,7.56,20.748,20.748,0,0,0,17.977,5.3a1.1,1.1,0,0,0-.927.536,20.736,20.736,0,0,0-2.891,9.233,25.018,25.018,0,0,0-9.424,3.395,1.1,1.1,0,0,0-.528.915,24.147,24.147,0,0,0,8.959,19.543,1.1,1.1,0,0,0,1.359-1.733A21.884,21.884,0,0,1,6.4,20.041a22.066,22.066,0,0,1,16.041-2.42,22.574,22.574,0,0,0-.64,5.28A23.056,23.056,0,0,0,25.945,36a22.3,22.3,0,0,1-7.757-7.692l-.945-1.574a1.1,1.1,0,1,0-1.886,1.133l.943,1.573a24.545,24.545,0,0,0,13.144,10.6q.7.646,1.451,1.24A21.011,21.011,0,0,1,18.068,39.4a1.1,1.1,0,0,0-.981,1.968,23.03,23.03,0,0,0,10.3,2.414,23.924,23.924,0,0,0,5.971-.77c.119.073.241.141.36.212A17.768,17.768,0,0,1,19.6,50.4,17.892,17.892,0,0,1,4.37,41.6a18.764,18.764,0,0,1,2.844-3.63,1.1,1.1,0,1,0-1.551-1.56,20.878,20.878,0,0,0-3.52,4.65,1.1,1.1,0,0,0,0,1.071A20.122,20.122,0,0,0,19.6,52.6a19.318,19.318,0,0,0,5.164-.712,51.847,51.847,0,0,1,7.713,12.115L34,67.359A1.1,1.1,0,0,0,35,68h.043a1.1,1.1,0,0,0,.99-.723,51.91,51.91,0,0,1,6.139-11.853,1.1,1.1,0,1,0-1.808-1.254,54.072,54.072,0,0,0-5.44,9.906l-.448-.99A53.97,53.97,0,0,0,27,51.122a20.31,20.31,0,0,0,8-5.962,19.735,19.735,0,0,0,32.862-3.022A1.1,1.1,0,0,0,67.864,41.067ZM16.374,14.861A18.54,18.54,0,0,1,18.629,7.5a18.5,18.5,0,0,1,7.664,1.81,23.6,23.6,0,0,0-3.23,6.171,23.271,23.271,0,0,0-6.689-.62ZM50.4,50.4a17.771,17.771,0,0,1-14.119-7.186c.119-.07.238-.14.354-.211A24.194,24.194,0,0,0,42.7,43.8a22.705,22.705,0,0,0,17.374-8A18.49,18.49,0,0,1,65.633,41.6,17.9,17.9,0,0,1,50.4,50.4Z" fill="#fff"/>
    </g>
  </g>
</svg>
