<svg xmlns="http://www.w3.org/2000/svg" xmlns:xlink="http://www.w3.org/1999/xlink" width="73" height="73" viewBox="0 0 73 73">
  <defs>
    <clipPath id="clip-path">
      <rect id="Rectangle_1773" data-name="Rectangle 1773" width="73" height="73" transform="translate(-11862 -86)" fill="#d8bbbb"/>
    </clipPath>
  </defs>
  <g id="Mask_Group_58" data-name="Mask Group 58" transform="translate(11862 86)" clip-path="url(#clip-path)">
    <g id="lavender" transform="translate(-11856.605 -80.799)">
      <path id="Path_12578" data-name="Path 12578" d="M266.362,1.6a3.717,3.717,0,0,0-5.98-.173c-6.769,8.628-4.45,5.967-7.574,8.647l1.874-4.788a3.719,3.719,0,1,0-7.091-.533L249.5,13.16q-1.82,1.847-3.478,3.879l1.088-4.111a3.719,3.719,0,1,0-7.1.279l2.845,8.111c-1.1,1.64-2.012,3.144-2.958,4.883.488-4.236.469-4,.469-4.29a3.716,3.716,0,0,0-4.4-3.649c-3.407.632-3.857,5.281-1.9,5a.977.977,0,0,0,.831-1.1,1.766,1.766,0,1,1,3.5-.042l-.657,5.707-1.285-2.46a.977.977,0,1,0-1.732.905l2.656,5.083a67.042,67.042,0,0,0-5.446,33.4.977.977,0,1,0,1.946-.181,64.92,64.92,0,0,1,5.216-32.243c8.965.606,8.362.569,8.549.569a3.719,3.719,0,1,0-1.884-6.931l-5.075,2.964a60.75,60.75,0,0,1,3.67-6.321c8.9,1.913,8.457,1.85,9.01,1.85a3.72,3.72,0,1,0-1.409-7.169L246.61,19.46a53.8,53.8,0,0,1,4.224-4.866c8.686,2.936,8.335,2.889,9.157,2.889a3.726,3.726,0,0,0,1.933-6.9.977.977,0,1,0-1.019,1.668,1.765,1.765,0,0,1-1.482,3.18l-5.442-1.839,3.931-1.089a.977.977,0,0,0-.522-1.883l-3.286.91q.944-.81,1.947-1.588l8.391-2.682A3.718,3.718,0,0,0,266.362,1.6ZM246.741,27.662a1.767,1.767,0,0,1,2.236,2.666,1.746,1.746,0,0,1-1.464.619l-5.731-.388ZM245.22,12.427l-1.47,5.553-1.9-5.421a1.767,1.767,0,0,1,3.043-1.688,1.749,1.749,0,0,1,.329,1.555Zm7.465,6.683a1.765,1.765,0,1,1,.291,3.362l-5.616-1.207Zm-1.917-9.19-1.271-5.6a1.748,1.748,0,0,1,.384-1.543,1.767,1.767,0,0,1,2.98,1.8Zm14.211-5.633A1.749,1.749,0,0,1,263.845,5.4l-5.472,1.749,3.546-4.52A1.767,1.767,0,0,1,264.979,4.287Z" transform="translate(-201.526 0)" fill="#fff"/>
      <path id="Path_12579" data-name="Path 12579" d="M24.807,67.123a3.684,3.684,0,0,0-2.589,2.127c-4.423,10.016-2.835,6.87-5.2,10.242l.634-5.1a3.719,3.719,0,1,0-7,1.234L14.566,83.3q-1.308,2.237-2.41,4.613l.04-4.243A3.719,3.719,0,1,0,5.379,85.7l4.757,7.155q-.948,2.659-1.66,5.461L7.956,94.47A3.719,3.719,0,1,0,1.5,97.452l5.81,6.48a75.671,75.671,0,0,0-.654,18.248.977.977,0,1,0,1.947-.164,73.385,73.385,0,0,1,.625-17.559l8.158-1.5A3.719,3.719,0,1,0,14.1,96.65l-4.173,4.112a60.65,60.65,0,0,1,1.987-7.019l8.392-.317a3.714,3.714,0,0,0,3.371-4.942c-1.176-3.37-6.024-2.951-5.345-1.035a.977.977,0,0,0,1.248.594,1.766,1.766,0,1,1,.653,3.43l-5.741.217,2.131-1.566a.977.977,0,1,0-1.158-1.575l-2.144,1.577a53.641,53.641,0,0,1,2.889-5.757c9.065.7,8.466.654,8.675.654a3.719,3.719,0,1,0-1.856-6.948L18.627,80.6q.715-1.017,1.494-2.019l7.472-4.672a3.719,3.719,0,0,0-2.786-6.783ZM2.956,96.148a1.765,1.765,0,1,1,3.063-1.415l.772,5.692Zm12.52,1.895a1.746,1.746,0,0,1,1.232-.508,1.766,1.766,0,0,1,.326,3.5l-5.65,1.039ZM10.187,89.4,7.007,84.615a1.767,1.767,0,0,1,2.532-2.387,1.748,1.748,0,0,1,.7,1.426Zm5.52-15.244L15,79.855,12.385,74.74a1.765,1.765,0,1,1,3.323-.585ZM24,79.771a1.767,1.767,0,0,1,2.212,2.686,1.748,1.748,0,0,1-1.47.605l-5.728-.439Zm2.552-7.523-4.871,3.046,2.321-5.255a1.765,1.765,0,1,1,2.55,2.209Z" transform="translate(-0.549 -58.298)" fill="#fff"/>
    </g>
  </g>
</svg>
