<svg xmlns="http://www.w3.org/2000/svg" xmlns:xlink="http://www.w3.org/1999/xlink" width="73" height="73" viewBox="0 0 73 73">
  <defs>
    <clipPath id="clip-path">
      <rect id="Rectangle_1783" data-name="Rectangle 1783" width="73" height="73" transform="translate(-11880 2404)" fill="#c95858"/>
    </clipPath>
  </defs>
  <g id="Mask_Group_68" data-name="Mask Group 68" transform="translate(11880 -2404)" clip-path="url(#clip-path)">
    <g id="Group_1124" data-name="Group 1124" transform="translate(-13186.059 -2902.676)">
      <path id="Path_12564" data-name="Path 12564" d="M26.11,23.442c.1-1.946.168-3.892.3-5.838a10.316,10.316,0,0,1,.742-3.336c1.2,3.258.215,6.739,1.2,10.12A4.6,4.6,0,0,0,29.606,20.3c-.275-2.291-.5-4.6-.646-6.906-.072-1.112.084-2.224.156-3.892,1.52,1.379,1.065,2.68,1.281,3.781s.383,2.424.718,3.636c.766-2.969-.479-6.139,1.2-9.364,1.461,1.957-.311,4.126,1.2,5.905C36.622,9.575,36.095,4.415,39.279,0c.479,2.358-.706,3.781-.982,5.338S37.6,8.452,37.16,10.42l2.873-1.7c-.072,1.69-1.2,2.5-2.071,3.447s-1.844,1.968-2.777,2.947l.347.411,6.381-3.97.419.4c-.706.678-1.413,1.379-2.131,2.046-1.054.979-2.131,1.946-3.2,2.925L34.61,18.038l.359.478,1.987-1.668L41.542,15c-1.281,2.124-3.592,3.058-5.411,4.448s-4.477,1.7-5.268,4.671L38.2,20.784l.4.578c-1.365,1.234-3.208,1.89-4.789,2.9A39.375,39.375,0,0,0,29.02,27.69c3.161-.267,5.711-2.3,8.8-2.624l.263.5L31.007,29.1c2.107.178,3.723-1.112,6.213-1.568-.646.634-.9,1.034-1.281,1.234-2.921,1.524-5.866,3.014-8.787,4.526-.706.367-1.377.8-2.059,1.2l.287.645,9.134-2.713.251.612L26.386,36.6l.1.3L33.8,34.852l.263.545a17.229,17.229,0,0,1-3.819,1.624c-1.293.567-2.6,1.112-3.915,1.668A36.993,36.993,0,0,0,22.291,40.4c3.46.2,6.632-1.368,10.044-1.457-3.735,2.146-8.3,2.346-11.972,4.448l.18.578,11.361-2.8.192.5a35.292,35.292,0,0,1-6.908,2.346c-2.287.712-4.549,1.49-7.411,2.435,2.394.912,4.142.2,5.83-.078s3.472-.723,5.256-.912c-2.394,1.9-5.723,1.824-8.38,3.336l7.423-.956.1.578c-3.723.867-7.411,1.968-11.325,1.824-1.2,0-1.748.278-1.987,1.568,3.592.411,6.908-1.112,10.392-.9-3.783,1.768-7.961,2.068-12.044,2.8,3.28.979,6.381-.6,9.709-.133L16.2,55.547l.084.489,5.986-.5v.545a31.178,31.178,0,0,1-12.726.845c-.742.9-.335,1.4.623,1.524a35.08,35.08,0,0,0,3.711.234,14.253,14.253,0,0,1,4.334.478,30.618,30.618,0,0,1-3.592.456c-2,0-4.011-.156-5.986-.178a11.472,11.472,0,0,0-2.215.534c3.376,2.224,6.9,1.112,9.889,2.113a20.042,20.042,0,0,1-8.715-.2,3.892,3.892,0,0,0-3.891.956A6.576,6.576,0,0,1,1.868,64.11,5.037,5.037,0,0,1,0,64.032l3.843-3.2c-.67-3.848-2.263-7.44-1.5-11.821,1.748,1.8.946,3.625,1.532,5.115s.251,3.336,1.987,5.1c-.156-4.448-1.76-8.2-1.628-12.055l.982-.122,2.119,9.33a2.047,2.047,0,0,0,1.58-2.558c-.215-2.569-.419-5.138-.563-7.718a7.727,7.727,0,0,1,.383-2.847c1.449,1.346.874,3.08,1.2,4.615a22.123,22.123,0,0,0,1.2,5.093,4.7,4.7,0,0,0,.4-1.39c-.1-2.391-.3-4.782-.383-7.184a23.346,23.346,0,0,1,.287-2.914c1.808,1.4,1.006,2.925,1.2,4.181s.215,2.736.335,4.571a2.875,2.875,0,0,0,1.293-3.447c-.587-2.969-1.2-5.949-1.676-8.9-.2-1.168-.6-2.413.551-3.77,1.2,2.013.766,4.115,1.3,6.005s.838,3.981,1.269,6.083C17.1,45.928,17,45.183,16.9,44.36q-.431-4.649-.79-9.3a2.753,2.753,0,0,1,.515-1.713c1.652,2.747,1.2,5.872,2.2,8.9a3.556,3.556,0,0,0,.407-1.212c-.287-3.092-.646-6.183-.958-9.286a5.377,5.377,0,0,1,.263-2.547c1.772,2.791,1.52,6.038,2.394,9.108.91-1.212.922-1.212.754-2.535-.455-3.7-.958-7.417-1.365-11.121a6.233,6.233,0,0,1,.407-3.047C22.2,25.533,22.2,29.67,23.129,33.751c1.2-.245,1.317-1.045,1.3-1.824,0-2.48-.18-4.971-.239-7.451V20.851l.587-.122,1.377,2.725q-.1,1.023-.18,2.035h.539Z" transform="matrix(0.998, -0.07, 0.07, 0.998, 1328.372, 5315.65)" fill="#fff"/>
      <path id="Path_12565" data-name="Path 12565" d="M17.93,27.975c.066,1.336.115,2.673.206,4.009a7.084,7.084,0,0,0,.51,2.291c.822-2.237.148-4.628.822-6.949a3.155,3.155,0,0,1,.863,2.81c-.189,1.573-.345,3.161-.444,4.742-.049.764.058,1.527.107,2.673,1.044-.947.732-1.84.88-2.6s.263-1.665.493-2.5c.526,2.039-.329,4.215.822,6.43,1-1.344-.214-2.833.822-4.055,2.137,2.665,1.776,6.208,3.962,9.24.329-1.619-.485-2.6-.674-3.665s-.477-2.138-.781-3.49l1.973,1.168c-.049-1.161-.822-1.718-1.422-2.367s-1.266-1.352-1.907-2.024l.238-.283,4.382,2.726.288-.275c-.485-.466-.97-.947-1.463-1.405-.723-.672-1.463-1.336-2.195-2.008l-1.644-.764.247-.328L25.378,32.5l3.149,1.268c-.88-1.459-2.466-2.1-3.716-3.055s-3.075-1.168-3.617-3.207L26.233,29.8l.271-.4a23.81,23.81,0,0,0-3.288-1.993,27.038,27.038,0,0,1-3.288-2.352c2.17.183,3.921,1.581,6.042,1.8l.181-.344-4.858-2.428c1.447-.122,2.557.764,4.267,1.077-.444-.435-.617-.71-.88-.848-2.006-1.046-4.028-2.069-6.034-3.108-.485-.252-.945-.55-1.414-.825l.2-.443L23.7,21.805l.173-.42-5.755-2.444.066-.206,5.023,1.405.181-.374a11.831,11.831,0,0,0-2.622-1.115c-.888-.389-1.784-.764-2.688-1.145a25.4,25.4,0,0,1-2.77-1.176c2.376-.137,4.554.939,6.9,1-2.565-1.474-5.7-1.611-8.221-3.055l.123-.4,7.8,1.924.132-.344A24.234,24.234,0,0,0,17.3,13.848c-1.57-.489-3.124-1.023-5.089-1.672,1.644-.626,2.844-.137,4,.053s2.384.5,3.609.626c-1.644-1.306-3.93-1.252-5.755-2.291l5.1.657.066-.4a29.388,29.388,0,0,0-7.777-1.252c-.822,0-1.2-.191-1.365-1.077,2.466-.283,4.743.764,7.136.619-2.6-1.214-5.467-1.42-8.27-1.924,2.253-.672,4.382.412,6.667.092l-4.5-1.352.058-.336,4.11.344V5.563a21.409,21.409,0,0,0-8.739-.58c-.51-.619-.23-.962.427-1.046a24.087,24.087,0,0,1,2.548-.16A9.787,9.787,0,0,0,12.5,3.447a21.023,21.023,0,0,0-2.466-.313c-1.373,0-2.754.107-4.11.122A7.878,7.878,0,0,1,4.406,2.89c2.318-1.527,4.735-.764,6.79-1.451a13.762,13.762,0,0,0-5.985.137A2.673,2.673,0,0,1,2.54.92,4.515,4.515,0,0,0,1.282.049,3.459,3.459,0,0,0,0,.1L2.639,2.3c-.46,2.642-1.554,5.109-1.028,8.117,1.2-1.237.649-2.489,1.052-3.513S2.836,4.616,4.028,3.4C3.921,6.456,2.82,9.03,2.91,11.679l.674.084L5.039,5.356A1.405,1.405,0,0,1,6.125,7.113c-.148,1.764-.288,3.528-.386,5.3A5.306,5.306,0,0,0,6,14.367c.995-.924.6-2.115.822-3.169a15.192,15.192,0,0,1,.822-3.5,3.226,3.226,0,0,1,.271.955c-.066,1.642-.206,3.284-.263,4.933a16.031,16.031,0,0,0,.2,2c1.241-.962.691-2.008.822-2.871s.148-1.879.23-3.139a1.974,1.974,0,0,1,.888,2.367c-.4,2.039-.822,4.085-1.151,6.109a2.69,2.69,0,0,0,.378,2.589c.822-1.382.526-2.825.9-4.124s.575-2.734.871-4.177c.954.191.888.7.822,1.268q-.3,3.192-.543,6.384a1.89,1.89,0,0,0,.353,1.176c1.134-1.886.822-4.032,1.513-6.109a2.442,2.442,0,0,1,.28.832c-.2,2.123-.444,4.246-.658,6.376a3.693,3.693,0,0,0,.181,1.749c1.217-1.917,1.044-4.147,1.644-6.254.625.832.633.832.518,1.741-.312,2.543-.658,5.093-.937,7.636a4.28,4.28,0,0,0,.28,2.092c1-2.7,1-5.536,1.644-8.339.822.168.9.718.9,1.252,0,1.7-.123,3.413-.164,5.116v2.489l.4.084.945-1.871q-.065-.7-.123-1.4h.37Z" transform="matrix(-0.966, -0.259, 0.259, -0.966, 1334.137, 5356.307)" fill="#fff"/>
    </g>
  </g>
</svg>
