<svg xmlns="http://www.w3.org/2000/svg" xmlns:xlink="http://www.w3.org/1999/xlink" width="73" height="73" viewBox="0 0 73 73">
  <defs>
    <clipPath id="clip-path">
      <rect id="Rectangle_1784" data-name="Rectangle 1784" width="73" height="73" transform="translate(-11880 2533)" fill="#c95858"/>
    </clipPath>
  </defs>
  <g id="Mask_Group_69" data-name="Mask Group 69" transform="translate(11880 -2533)" clip-path="url(#clip-path)">
    <g id="grapes" transform="translate(-11878 2503.279)">
      <g id="Group_335" data-name="Group 335" transform="translate(0 38.922)">
        <path id="Path_12566" data-name="Path 12566" d="M62.27,79.634A8.748,8.748,0,0,0,50.441,68.61a8.585,8.585,0,0,0,.431-1.969,1,1,0,0,0-1.983-.2,6.74,6.74,0,0,1-1.076,3.04,8.755,8.755,0,0,0-8.959-.869A8.759,8.759,0,0,0,35.584,64.3a6.757,6.757,0,0,1,12.431-1.911,1,1,0,1,0,1.725-1,8.731,8.731,0,0,0-1.5-1.909A8.749,8.749,0,0,0,39.41,46.618a18.664,18.664,0,0,0-.872-6.394,1.876,1.876,0,0,0-2.7-1.062A18.963,18.963,0,0,0,30.3,43.731a18.939,18.939,0,0,0-3.576-3.877,1.876,1.876,0,0,0-2.846.582,17.69,17.69,0,0,0-1.951,11.7A42.543,42.543,0,0,0,3.153,41.747a2.238,2.238,0,0,0-2.763,2L.006,48.53a2.049,2.049,0,0,0,2.27,2.2c6.393-.741,12.266,1.657,16.677,4.385A17.547,17.547,0,0,0,4.778,57.227,1.875,1.875,0,0,0,4.366,60.1a18.924,18.924,0,0,0,4.082,3.34,18.962,18.962,0,0,0-4.232,5.793,1.876,1.876,0,0,0,1.221,2.637,19.117,19.117,0,0,0,4.157.581A8.74,8.74,0,0,0,23.472,82.635a8.749,8.749,0,0,0,14.457,4.611,8.784,8.784,0,0,0,6.105,7.9,1,1,0,0,0,.6-1.9,6.772,6.772,0,0,1-4.451-8.334A8.762,8.762,0,0,0,50.107,81a6.748,6.748,0,0,1-1.424,12.239,1,1,0,1,0,.6,1.9,8.74,8.74,0,0,0,3.188-1.817,8.743,8.743,0,1,0,9.8-13.692ZM37.105,69.711a8.76,8.76,0,0,0-3.2,7.648,6.75,6.75,0,1,1,3.2-7.648Zm-3.332-6.376a8.855,8.855,0,0,0-3.93-.569,8.744,8.744,0,0,0-5.127-6.918A6.655,6.655,0,0,1,25,55.193a6.764,6.764,0,0,1,7.257-3.617s.309.063.309.064a6.8,6.8,0,0,1,5.22,6.562A8.727,8.727,0,0,0,33.774,63.335ZM42.1,48.706a6.758,6.758,0,0,1,4.534,9.542,8.771,8.771,0,0,0-6.9-.879,8.756,8.756,0,0,0-4.163-6.627A6.764,6.764,0,0,1,42.1,48.706ZM25.577,41.491c3.329,2.776,2.985,4.278,4.639,4.345,1.863.08,1.541-2.066,6.467-4.865a16.282,16.282,0,0,1,.692,6.173,8.806,8.806,0,0,0-3.682,2.74,8.726,8.726,0,0,0-9.572,2.971A15.457,15.457,0,0,1,25.577,41.491ZM2.047,48.748a.056.056,0,0,1-.054-.058c.412-5.13.351-4.871.484-4.967.216-.157,10.224,2.062,18.665,10.426C15.473,50.38,8.866,47.958,2.047,48.748Zm19.119,8.337a6.78,6.78,0,0,1,6.716,6.08A8.739,8.739,0,0,0,21.9,70.548a6.751,6.751,0,1,1-.733-13.463ZM6.073,69.977c2.5-5.08,4.658-4.886,4.472-6.744-.165-1.648-1.65-1.221-4.613-4.373a15.582,15.582,0,0,1,10.349-2.283A8.752,8.752,0,0,0,13.712,68.4a8.87,8.87,0,0,0-2.751,2.039A16.981,16.981,0,0,1,6.073,69.977Zm17.306,9.542a6.75,6.75,0,1,1-8.391-9.5A8.64,8.64,0,0,0,17.9,71.949l.018.007a8.813,8.813,0,0,0,3.994.594,8.834,8.834,0,0,0,2.119,4.709A8.578,8.578,0,0,0,23.378,79.519Zm2.916,4.848a6.7,6.7,0,0,1-.984-4.247,8.725,8.725,0,0,0,.508-1.314,8.752,8.752,0,0,0,8.529.569A8.775,8.775,0,0,0,38,83.94,6.758,6.758,0,0,1,26.295,84.367Zm16.211-1.111c-9.24-.134-8.456-13.737.284-13.5C51.557,69.986,51.5,83.393,42.506,83.256Zm8.428-4.079a8.758,8.758,0,0,0-1.22-7.763A6.75,6.75,0,1,1,54.666,83.28,8.711,8.711,0,0,0,50.933,79.177Zm2.891,12.638a8.789,8.789,0,0,0,1.437-6.594,8.71,8.71,0,0,0,6.091-3.8,6.75,6.75,0,1,1-7.527,10.391Z" transform="translate(0 -38.922)" fill="#fff"/>
      </g>
    </g>
  </g>
</svg>
