<svg xmlns="http://www.w3.org/2000/svg" xmlns:xlink="http://www.w3.org/1999/xlink" width="73" height="73" viewBox="0 0 73 73">
  <defs>
    <clipPath id="clip-path">
      <rect id="Rectangle_1782" data-name="Rectangle 1782" width="73" height="73" transform="translate(-11879 2279)" fill="#c95858"/>
    </clipPath>
  </defs>
  <g id="Mask_Group_67" data-name="Mask Group 67" transform="translate(11879 -2279)" clip-path="url(#clip-path)">
    <g id="Group_1122" data-name="Group 1122" transform="translate(-11873.047 2277)">
      <g id="Group_31" data-name="Group 31" transform="translate(0.402 5.627) rotate(-7)">
        <g id="Group_26" data-name="Group 26" transform="translate(8.055 0)">
          <g id="Group_25" data-name="Group 25">
            <path id="Path_17" data-name="Path 17" d="M5.379.316A1.118,1.118,0,0,0,4.6,0,1.1,1.1,0,0,0,3.82.308,14.406,14.406,0,0,0,0,10.2a11.649,11.649,0,0,0,1.074,4.9,1.112,1.112,0,1,0,2.018-.935A9.4,9.4,0,0,1,2.23,10.21,12.522,12.522,0,0,1,4.612,2.861a12.743,12.743,0,0,1,2.451,7.373,9.29,9.29,0,0,1-.824,3.95,1.131,1.131,0,0,0,.548,1.491,1.1,1.1,0,0,0,1.478-.536,11.511,11.511,0,0,0,1.028-4.894A14.706,14.706,0,0,0,5.379.316Z" fill="#fff"/>
          </g>
        </g>
        <g id="Group_28" data-name="Group 28" transform="translate(0 13.615)">
          <g id="Group_27" data-name="Group 27" transform="translate(0 0)">
            <path id="Path_18" data-name="Path 18" d="M15.692,23.274a1.007,1.007,0,0,0-.871,1.177,1.1,1.1,0,0,0,1.088.824,1.215,1.215,0,0,0,.209-.018A12.329,12.329,0,0,0,22.56,22.15a10.339,10.339,0,0,0,2.845-9.474,1.1,1.1,0,0,0-1.084-.8h0a14.932,14.932,0,0,0-9.526,3.933,12.122,12.122,0,0,0-.94.987l-.035-6.614s0-.007,0-.011a7.52,7.52,0,0,1,2.5-4.721,12.787,12.787,0,0,1,6.98-3.243,8.3,8.3,0,0,1-2.4,6.764A9.952,9.952,0,0,1,15.631,11.5a1.007,1.007,0,0,0-.871,1.177,1.1,1.1,0,0,0,1.088.824,1.214,1.214,0,0,0,.209-.017A12.329,12.329,0,0,0,22.5,10.379,10.339,10.339,0,0,0,25.344.905,1.1,1.1,0,0,0,24.26.1h0a14.932,14.932,0,0,0-9.526,3.933A10.681,10.681,0,0,0,12.8,6.432,11,11,0,0,0,10.836,4.02,15.2,15.2,0,0,0,1.269,0h0A1.073,1.073,0,0,0,.192.791a10.467,10.467,0,0,0,2.944,9.5,12.609,12.609,0,0,0,6.475,3.166,1.22,1.22,0,0,0,.209.019,1.072,1.072,0,0,0,1.08-.814,1.029,1.029,0,0,0-.883-1.185A10.178,10.178,0,0,1,4.716,8.9,8.441,8.441,0,0,1,2.241,2.11,13.06,13.06,0,0,1,9.255,5.416,7.692,7.692,0,0,1,11.81,10.16l0,.011.035,6.615a12.583,12.583,0,0,0-.95-1,15.2,15.2,0,0,0-9.568-4.02h0a1.073,1.073,0,0,0-1.076.791,10.467,10.467,0,0,0,2.944,9.5,12.607,12.607,0,0,0,6.475,3.166,1.221,1.221,0,0,0,.209.019,1.072,1.072,0,0,0,1.08-.814,1.029,1.029,0,0,0-.883-1.185,10.179,10.179,0,0,1-5.3-2.582A8.442,8.442,0,0,1,2.3,13.881a13.06,13.06,0,0,1,7.014,3.306,7.691,7.691,0,0,1,2.554,4.744l0,.011.036,6.892a12.582,12.582,0,0,0-.95-1,15.2,15.2,0,0,0-9.568-4.02h0a1.073,1.073,0,0,0-1.076.791,10.466,10.466,0,0,0,2.944,9.5,12.607,12.607,0,0,0,6.475,3.166,1.221,1.221,0,0,0,.209.019,1.072,1.072,0,0,0,1.08-.814A1.029,1.029,0,0,0,10.14,35.3a10.179,10.179,0,0,1-5.3-2.582,8.441,8.441,0,0,1-2.475-6.786,13.058,13.058,0,0,1,7.014,3.306,7.692,7.692,0,0,1,2.554,4.744l0,.011L12.03,52A1.061,1.061,0,0,0,13.039,53a1.037,1.037,0,0,0,1-1L13.944,34l0-.011a7.523,7.523,0,0,1,2.505-4.721,12.785,12.785,0,0,1,6.98-3.243,8.3,8.3,0,0,1-2.4,6.764,9.955,9.955,0,0,1-5.273,2.535,1.007,1.007,0,0,0-.871,1.176,1.1,1.1,0,0,0,1.088.824,1.215,1.215,0,0,0,.209-.018A12.33,12.33,0,0,0,22.623,34.2a10.338,10.338,0,0,0,2.845-9.474,1.1,1.1,0,0,0-1.084-.8h0a14.932,14.932,0,0,0-9.526,3.933,12.171,12.171,0,0,0-.94.987l-.036-6.892s0-.007,0-.011a7.52,7.52,0,0,1,2.5-4.721,12.787,12.787,0,0,1,6.98-3.243,8.3,8.3,0,0,1-2.4,6.764A9.958,9.958,0,0,1,15.692,23.274Z" fill="#fff"/>
          </g>
        </g>
      </g>
      <g id="Group_32" data-name="Group 32" transform="translate(43.984 19.315) rotate(22)">
        <g id="Group_26-2" data-name="Group 26" transform="translate(7.157 0)">
          <g id="Group_25-2" data-name="Group 25" transform="translate(0 0)">
            <path id="Path_17-2" data-name="Path 17" d="M4.719.27a.986.986,0,0,0-1.356,0A12.565,12.565,0,0,0,0,8.845a9.977,9.977,0,0,0,.914,4.239.97.97,0,0,0,1.759-.818A8.053,8.053,0,0,1,1.94,8.845a10.9,10.9,0,0,1,2.1-6.369,10.9,10.9,0,0,1,2.1,6.369,8.051,8.051,0,0,1-.733,3.422.97.97,0,1,0,1.758.818,9.976,9.976,0,0,0,.914-4.239A12.565,12.565,0,0,0,4.719.27Z" fill="#fff"/>
          </g>
        </g>
        <g id="Group_28-2" data-name="Group 28" transform="translate(0 11.761)">
          <g id="Group_27-2" data-name="Group 27" transform="translate(0 0)">
            <path id="Path_18-2" data-name="Path 18" d="M13.659,20.022a.881.881,0,0,0-.769,1.018.948.948,0,0,0,.95.707,1.083,1.083,0,0,0,.183-.016,11,11,0,0,0,5.66-2.706,8.874,8.874,0,0,0,2.537-8.185.951.951,0,0,0-.946-.687h0a13.33,13.33,0,0,0-8.367,3.431,10.684,10.684,0,0,0-.828.855V8.734l0-.01A6.526,6.526,0,0,1,14.3,4.641,11.41,11.41,0,0,1,20.43,1.816a7.151,7.151,0,0,1-2.138,5.845,8.876,8.876,0,0,1-4.633,2.207.881.881,0,0,0-.769,1.018.948.948,0,0,0,.95.707,1.083,1.083,0,0,0,.183-.016,11,11,0,0,0,5.66-2.706A8.874,8.874,0,0,0,22.221.687.951.951,0,0,0,21.274,0h0a13.33,13.33,0,0,0-8.367,3.431A9.375,9.375,0,0,0,11.2,5.5,9.388,9.388,0,0,0,9.492,3.431,13.328,13.328,0,0,0,1.125,0h0A.95.95,0,0,0,.178.687,8.873,8.873,0,0,0,2.714,8.871a11,11,0,0,0,5.66,2.706,1.083,1.083,0,0,0,.183.016.948.948,0,0,0,.95-.707.88.88,0,0,0-.769-1.018A8.877,8.877,0,0,1,4.106,7.661,7.152,7.152,0,0,1,1.968,1.816,11.41,11.41,0,0,1,8.1,4.641a6.526,6.526,0,0,1,2.217,4.083l0,.01V14.44a10.772,10.772,0,0,0-.828-.855,13.329,13.329,0,0,0-8.367-3.431h0a.95.95,0,0,0-.946.687,8.873,8.873,0,0,0,2.537,8.185,10.994,10.994,0,0,0,5.66,2.706,1.083,1.083,0,0,0,.183.016.948.948,0,0,0,.95-.707.88.88,0,0,0-.769-1.018,8.877,8.877,0,0,1-4.633-2.207,7.153,7.153,0,0,1-2.138-5.845A11.41,11.41,0,0,1,8.1,14.8a6.525,6.525,0,0,1,2.217,4.083l0,.01v5.946a10.771,10.771,0,0,0-.828-.855,13.328,13.328,0,0,0-8.367-3.431h0a.95.95,0,0,0-.946.687,8.872,8.872,0,0,0,2.537,8.184,10.994,10.994,0,0,0,5.66,2.706,1.084,1.084,0,0,0,.183.016.948.948,0,0,0,.95-.707.88.88,0,0,0-.769-1.018,8.878,8.878,0,0,1-4.633-2.207,7.152,7.152,0,0,1-2.138-5.845A11.408,11.408,0,0,1,8.1,25.189a6.526,6.526,0,0,1,2.217,4.083l0,.01V44.814a.88.88,0,0,0,1.76,0V29.281l0-.01A6.528,6.528,0,0,1,14.3,25.189a11.408,11.408,0,0,1,6.132-2.825,7.151,7.151,0,0,1-2.138,5.845,8.879,8.879,0,0,1-4.633,2.207.88.88,0,0,0-.769,1.018.948.948,0,0,0,.95.707,1.083,1.083,0,0,0,.183-.016,11,11,0,0,0,5.66-2.706,8.873,8.873,0,0,0,2.537-8.184.95.95,0,0,0-.946-.687h0a13.33,13.33,0,0,0-8.367,3.431,10.729,10.729,0,0,0-.828.855V18.888l0-.01A6.525,6.525,0,0,1,14.3,14.8a11.41,11.41,0,0,1,6.132-2.825,7.151,7.151,0,0,1-2.138,5.845A8.881,8.881,0,0,1,13.659,20.022Z" fill="#fff"/>
          </g>
        </g>
      </g>
    </g>
  </g>
</svg>
