<?xml version="1.0" encoding="utf-8"?>
<!-- Generator: Adobe Illustrator 24.1.0, SVG Export Plug-In . SVG Version: 6.00 Build 0)  -->
<svg version="1.1" id="圖層_1" xmlns="http://www.w3.org/2000/svg" xmlns:xlink="http://www.w3.org/1999/xlink" x="0px" y="0px"
	 viewBox="0 0 345 104" style="enable-background:new 0 0 345 104;" xml:space="preserve">
<style type="text/css">
	.st0{enable-background:new    ;}
	.st1{fill:#92BE1B;}
</style>
<g class="st0">
	<path class="st1" d="M91.7,12.3V46h-2.3v-3.6h-6.9v5.1h-2.3V12.3C80.2,12.3,91.7,12.3,91.7,12.3z M82.4,40.3h6.9V14.4h-6.9V40.3z
		 M92.8,41.8h16.8v-6.9h2.3v6.9h13.3v2.1h-13.3v11.4h-2.3V43.9H92.8V41.8z M108.6,6.8l2.1,0.7c-0.8,1.8-1.8,3.4-2.9,4.9h14.2v20.8
		h-15.2c-0.3,0.4-0.5,0.7-0.8,1c-2.6,3-6.3,5.2-11.1,6.8l-1.4-1.8c4.5-1.5,7.9-3.5,10.2-6h-7.6V12.4h8.9
		C106.4,10.7,107.6,8.8,108.6,6.8z M98.4,21.5h9.3v-0.3c0.1,0,0.1-2.3,0.1-6.7h-9.4V21.5z M98.4,31.2h6.9c1.3-2,2.1-4.5,2.3-7.5
		h-9.1V31.2z M109.8,23.6c-0.2,2.9-0.7,5.4-1.8,7.5h11.6v-7.5H109.8z M109.9,14.6c0,3.8,0,6-0.1,6.9h9.7v-6.9H109.9z"/>
	<path class="st1" d="M148.7,20.6c3.3,2,6.4,4.3,9.2,6.9l-1.7,2.1c-2.9-2.9-5.9-5.3-9-7.3L148.7,20.6z M156.7,34l2.1,1.4
		c-2,6.4-4.9,12.8-8.8,19.2l-2.3-1.7C151.5,47.2,154.6,40.9,156.7,34z M151.2,9.1c3.3,2,6.4,4.4,9.1,7.1l-1.6,2.1
		c-2.9-3-5.9-5.5-9-7.5L151.2,9.1z M159.4,9.8h35.7v2.1H182v7.8h10v35.5h-2.3v-3.5h-25.5v3.7H162V19.7h9.3V12h-11.8L159.4,9.8
		L159.4,9.8z M164.2,41.2h25.5V21.8H182v9.4c0,0.6,0.4,1,1,1h5.3v2.1H183c-2.2,0-3.2-1-3.2-3v-9.5h-6.3v3.6c0,2.8-0.6,5.4-1.8,7.8
		c-1.1,2.1-2.5,3.8-4.3,5.1l-1.8-1.4c2-1.6,3.5-3.5,4.4-5.5c0.9-1.9,1.4-3.9,1.4-6v-3.6h-6.9L164.2,41.2L164.2,41.2z M164.2,49.5
		h25.5v-6.2h-25.5V49.5z M179.8,19.7V12h-6.3v7.8C173.4,19.7,179.8,19.7,179.8,19.7z"/>
	<path class="st1" d="M217.8,14.2h13.5V7.2h2.3v6.9h6.5v2.1h-6.5V22h-2.3v-5.8h-13.5L217.8,14.2L217.8,14.2z M232.4,22.4l2.4,0.7
		c-1.5,2.6-3.1,4.9-4.5,6.9v25.3H228V32.8c-0.1,0.1-0.1,0.2-0.2,0.2c-2.4,2.8-5.1,5.3-8,7.7l-1.8-1.4c3.2-2.5,5.9-5.1,8.1-7.9
		C228.8,28.3,230.8,25.3,232.4,22.4z M242.5,14.2h6.5V7.2h2.3v6.9h13.5v2.1h-13.5v6.9H249v-6.9h-6.5L242.5,14.2L242.5,14.2z
		 M242.9,22.5h2.3v13.5c5.9-2.4,11.1-5.4,15.7-9.1l1.4,2.1c-5.1,3.8-10.8,6.9-17.1,9.5v9.7c0,0.8,0.2,1.4,0.5,1.8
		c0.7,0.5,4.7,0.7,11.7,0.7c2.3,0,3.5-0.4,4-1.2c0.4-0.5,0.7-3.3,1-8.6l2.3,1.4c-0.5,5.7-1,8.8-1.6,9.2c-0.5,1-2.3,1.4-5.6,1.4
		c-7.2,0-11.4-0.3-12.5-0.7c-1.4-0.5-2-1.4-2-3.2V22.5L242.9,22.5z"/>
</g>
<g class="st0">
	<path class="st1" d="M92.3,76.6l1,0.3c-0.6,2.2-1.3,4-1.9,5.6v16.1h-1.1V84.9c-0.7,1.6-1.5,3-2.3,4.4l-0.8-0.6
		c1.1-1.8,2-3.6,2.8-5.6C91.1,80.9,91.8,78.7,92.3,76.6z M108.1,77.8v20.8h-1.2v-1.8H95.4v1.8h-1.1V77.8H108.1z M95.4,95.9h11.5
		V78.8H95.4V95.9z M96.2,82.9h4.4v-3.2h1.1v3.2h4.5v1h-4.5v2.9h3.3v6.8h-7.6v-6.8h3.3V84h-4.4v-1.1H96.2z M98.4,92.7h5.5v-4.9h-5.5
		V92.7z"/>
	<path class="st1" d="M127.7,76.6l1.3,0.1c-0.1,2.8-0.3,5.1-0.6,6.9c1.6,3.5,3.3,6.1,4.9,8.1c2,2.4,4,4.2,6.1,5.6l-0.7,1.4
		c-2-1.3-3.9-3-5.6-5.1c-1.7-1.9-3.4-4.6-5-8.1c-0.1,0.4-0.2,0.8-0.4,1.1c-0.8,2.2-2,4.4-3.6,6.5c-1.7,2.2-3.6,4-5.7,5.6l-0.8-1
		c2-1.5,3.8-3.2,5.4-5.3c1.6-2,2.7-4.1,3.4-6.2C127.2,84.1,127.6,81,127.7,76.6z"/>
	<path class="st1" d="M148.1,83c1.5,0.9,2.8,1.9,4,3.1l-0.7,0.8c-1.2-1.2-2.6-2.3-3.9-3.2L148.1,83z M152,88.7l0.8,0.6
		c-0.9,2.9-2.3,5.8-4.2,8.7l-0.9-0.6C149.5,94.8,151,91.9,152,88.7z M149.4,77.4c1.5,0.9,2.9,1.9,4.1,3.1l-0.7,0.8
		c-1.3-1.2-2.6-2.3-4-3.2L149.4,77.4z M154.1,78.5h6.4v-2h1.1v2h6.9v1h-6.9v1.9h5.3v1h-5.3v2h7.9v1H153v-1h7.6v-2h-5.3v-1h5.3v-1.9
		h-6.4v-1H154.1z M166.7,87.1v9.5c0,1.1-0.8,1.7-2.3,1.7c-0.7,0-1.5-0.1-2.3-0.3v-1c0.9,0.3,1.7,0.4,2.3,0.4c0.9,0,1.3-0.3,1.3-0.9
		v-2.2h-9.5v4.4h-1.1V87.1H166.7z M156.1,90.2h9.5V88h-9.5V90.2z M156.1,93.3h9.5v-2.1h-9.5V93.3z"/>
	<path class="st1" d="M177.9,82.4c1.3,0.9,2.5,2.1,3.7,3.4l-0.7,0.8c-1.1-1.4-2.3-2.5-3.5-3.4L177.9,82.4z M181.4,88.2l0.8,0.5
		c-0.9,3.2-2.1,6.3-3.8,9.5l-1-0.7C179.1,94.7,180.4,91.6,181.4,88.2z M178.9,77c1.3,1,2.5,2.1,3.5,3.4l-0.7,0.8
		c-1.1-1.4-2.2-2.5-3.4-3.5L178.9,77z M186.3,93.4l0.8,0.6c-0.5,0.6-1.2,1.2-2.1,1.8c-1,0.7-1.9,1.2-2.8,1.7l-0.7-0.9
		c0.9-0.4,1.8-0.9,2.7-1.5C185.2,94.5,185.8,93.9,186.3,93.4z M183,78.1h3.4v-1.6h1v1.6h3.3v0.8h-3.3v1.8h2.8v0.9h-2.8v1.7
		c1.2-0.2,2.4-0.5,3.4-0.7l0.1,0.9c-1.1,0.3-2.2,0.5-3.4,0.8v1.6h-1v-1.5c-1.2,0.2-2.3,0.4-3.6,0.5l-0.1-0.9
		c1.3-0.2,2.5-0.3,3.7-0.5v-1.9h-3v-0.9h3v-1.8h-3.4L183,78.1L183,78.1z M189.5,84.6l0.9,0.8c-0.4,0.4-1,0.9-1.8,1.5
		c-0.5,0.3-1,0.6-1.5,0.9c1.8,0,3.4-0.1,4.9-0.1c0.9-0.7,1.7-1.3,2.3-2l0.9,0.9c-1.1,1-2.5,2-4.1,3c-1.1,0.7-2.4,1.3-3.8,1.9
		c3-0.1,5.7-0.3,8.1-0.6c-0.5-0.5-1-0.9-1.5-1.3l0.5-0.8c1.4,1,2.7,2.2,3.8,3.6l-0.7,0.8c-0.4-0.5-0.9-1-1.4-1.5
		c-1.6,0.2-3.5,0.4-5.5,0.6v4.1c0,1.4-0.6,2.2-1.7,2.2c-0.9,0-1.7-0.1-2.5-0.3l-0.1-1.1c0.9,0.3,1.7,0.4,2.6,0.4
		c0.4,0,0.6-0.4,0.6-1.2v-4c-2.1,0.1-4.4,0.2-6.9,0.2l-0.2-1c0.8,0,1.6,0,2.4,0c1.3-0.5,2.8-1.2,4.4-2.1c0.5-0.3,0.9-0.6,1.4-0.8
		c-1.8,0.1-4.1,0.2-6.7,0.2l-0.1-0.9h1.5c0.6-0.3,1.2-0.8,1.8-1.2C188.3,85.9,188.9,85.2,189.5,84.6z M191.2,77.6h7
		c-0.1,4.1-0.4,6.5-0.9,7.1c-0.3,0.4-0.9,0.7-1.7,0.7c-0.5,0-1.2-0.1-2-0.4l-0.1-1c0.8,0.3,1.5,0.4,2.1,0.4c0.5,0,0.8-0.2,1-0.5
		c0.2-0.4,0.4-2.2,0.5-5.3h-2.6c-0.1,1.7-0.4,3.2-1,4.3c-0.5,1.1-1.2,2-2.2,2.9l-0.7-0.5c0.9-0.8,1.6-1.7,2.1-2.7s0.7-2.3,0.8-4
		h-2.4L191.2,77.6L191.2,77.6z M194.1,93.3c1.6,0.9,3.2,2,4.6,3.3l-0.7,0.8c-1.4-1.3-2.9-2.5-4.5-3.4L194.1,93.3z"/>
	<path class="st1" d="M214.1,90.8l0.6,0.9c-1.8,2-3.7,3.6-5.9,4.9l-0.5-1C210.2,94.5,212.1,93,214.1,90.8z M226.7,76.5l0.8,0.9
		c-2.3,0.7-4.8,1.3-7.7,1.7c-0.5,0.1-1,0.1-1.5,0.2c-1.2,1.6-2.6,3.1-4.3,4.5c2.4,0,4.5-0.1,6.5-0.2c1.4-1.2,2.7-2.3,3.8-3.5
		l1.1,0.9c-1.3,1.3-3.1,2.8-5.5,4.5c-1.8,1.2-3.6,2.3-5.6,3.2c3.2-0.1,6.8-0.4,10.6-0.7c-0.9-0.8-1.7-1.5-2.5-2.1l0.7-0.7
		c2,1.4,3.9,3.1,5.5,5.1l-0.8,0.9c-0.7-0.8-1.3-1.5-2-2.2c-2.1,0.2-4.4,0.5-6.7,0.6v6.7c0,1.4-0.9,2.1-2.6,2.1
		c-0.8,0-1.6-0.1-2.3-0.3l-0.1-1.2c0.8,0.3,1.6,0.4,2.4,0.4c1,0,1.4-0.4,1.4-1.2v-6.3c-3,0.2-6.1,0.3-9.4,0.4l-0.2-1.1
		c1.2,0,2.5,0,3.9-0.1c1.9-1,3.9-2.2,6.1-3.7c0.3-0.2,0.5-0.4,0.8-0.6c-2.3,0.2-5,0.3-8.3,0.3l-0.2-1h1.8c1.7-1.4,3.1-2.8,4.2-4.3
		c-2.5,0.3-4.9,0.5-7.2,0.6l-0.5-1c4.3-0.3,7.8-0.6,10.6-1C222.1,77.7,224.5,77.1,226.7,76.5z M222.6,91c2.3,1.3,4.3,2.8,6.2,4.6
		l-0.7,1c-1.9-1.9-4-3.5-6.1-4.8L222.6,91z"/>
	<path class="st1" d="M238,78.3h12.2v1h-6.4c-0.2,1.4-0.5,2.7-0.9,3.8h6.3c-0.7,4.4-1.9,7.8-3.7,10.1c-1.9,2.5-4.2,4.2-7,5.3l-0.4-1
		c2.7-1,4.8-2.6,6.5-5c0.2-0.3,0.4-0.5,0.6-0.8c-1.2-1.5-2.5-2.8-3.9-3.8l0.7-0.7c1.4,1,2.7,2.2,3.8,3.5c0.9-1.8,1.6-3.9,2-6.4h-5.2
		c-0.1,0.3-0.2,0.6-0.4,0.9c-1,2-2.3,3.7-3.8,5.1l-0.9-0.8c1.5-1.3,2.7-2.9,3.6-4.7c0.8-1.6,1.3-3.4,1.5-5.3h-4.7L238,78.3L238,78.3
		z M251.8,79.1h1.1v13.4h-1.1V79.1z M256.7,76.5h1.1v19.6c0,1.4-0.7,2.1-2.1,2.1c-1,0-1.9-0.1-2.7-0.3l-0.1-1.2
		c0.9,0.2,1.9,0.4,2.8,0.4c0.6,0,0.9-0.4,0.9-1.2V76.5H256.7z"/>
</g>
</svg>
