<?xml version="1.0" encoding="utf-8"?>
<!-- Generator: Adobe Illustrator 24.1.0, SVG Export Plug-In . SVG Version: 6.00 Build 0)  -->
<svg version="1.1" id="圖層_1" xmlns="http://www.w3.org/2000/svg" xmlns:xlink="http://www.w3.org/1999/xlink" x="0px" y="0px"
	 viewBox="0 0 488 196" style="enable-background:new 0 0 488 196;" xml:space="preserve">
<style type="text/css">
	.st0{enable-background:new    ;}
	.st1{fill:#92BE1B;}
</style>
<g class="st0">
	<path class="st1" d="M60.4,16.7v77.1h-5.3v-8.1H39.2v11.7H34V16.7H60.4z M39.2,80.9h15.9V21.5H39.2V80.9z M63,84.3h38.6V68.3h5.3
		v15.9h30.4v4.8h-30.4v26.1h-5.3V89.1H63V84.3z M99.2,4.1l4.7,1.8c-1.9,4.1-4.1,7.8-6.6,11.2h32.5v47.6H95.1
		c-0.7,0.9-1.3,1.6-1.9,2.2c-6,6.9-14.5,12-25.5,15.5l-3.2-4.1c10.3-3.4,18.1-8,23.5-13.6H70.6V17.1h20.5C94.3,13,97,8.7,99.2,4.1z
		 M75.9,37.9h21.2v-0.6c0.2,0,0.2-5.1,0.2-15.4H75.9V37.9z M75.9,59.9h15.8c3-4.7,4.7-10.4,5.2-17.2h-21V59.9z M102,42.7
		c-0.3,6.7-1.7,12.4-4.2,17.2h26.7V42.7H102z M102.4,21.9c0,8.6,0,13.9-0.1,15.9h22.3V21.9H102.4z"/>
	<path class="st1" d="M192.4,35.9c7.7,4.5,14.7,9.8,21.1,15.9l-3.9,4.7c-6.6-6.6-13.4-12.1-20.6-16.8L192.4,35.9z M210.6,66.4
		l4.7,3.4c-4.5,14.6-11.2,29.3-20.2,44.1l-5.2-3.9C199,96.7,205.8,82.1,210.6,66.4z M198.1,9.3c7.7,4.6,14.6,10,21,16.3l-3.8,4.7
		c-6.6-6.8-13.4-12.5-20.6-17.2L198.1,9.3z M216.8,11h82v4.8h-30v17.8h23v81.2h-5.3v-8.1h-58.5v8.4h-5.3V33.7H244V15.8h-27.2V11z
		 M228.1,82.9h58.5V38.5h-17.7v21.5c0,1.5,0.7,2.2,2.2,2.2h12.3v4.8h-12.3c-5,0-7.5-2.3-7.5-6.9V38.5H249v8.3
		c0,6.5-1.4,12.4-4.2,17.7c-2.5,4.8-5.8,8.8-9.8,11.8l-4.2-3.2c4.6-3.8,8-8,10.1-12.5c2.1-4.4,3.2-9,3.2-13.8v-8.3h-15.9V82.9z
		 M228.1,102h58.5V87.7h-58.5V102z M263.6,33.7V15.8H249v17.8H263.6z"/>
	<path class="st1" d="M351.9,20.9h30.9V4.9h5.3v15.9h15v4.8h-15v13.2h-5.3V25.7h-30.9V20.9z M385.4,39.8l5.6,1.8
		c-3.5,6-7,11.2-10.3,15.7v57.9h-5.3V63.8c-0.2,0.2-0.3,0.4-0.4,0.5c-5.5,6.3-11.7,12.2-18.5,17.6l-4.2-3.2
		c7.2-5.9,13.4-11.9,18.6-18C377.2,53.4,382,46.5,385.4,39.8z M408.7,20.9h15V4.9h5.3v15.9h30.9v4.8H429v15.9h-5.3V25.7h-15V20.9z
		 M409.6,40.1h5.3v31.2c13.4-5.5,25.4-12.5,36.1-20.9l3.3,4.7c-11.7,8.6-24.8,15.9-39.4,21.8v22.4c0,1.9,0.4,3.3,1.2,4.2
		c1.7,1.2,10.7,1.8,26.8,1.8c5.2,0,8.2-0.9,9-2.7c0.9-1.1,1.6-7.7,2.3-19.7l5.2,3.2c-0.9,13-2.2,20.1-3.8,21.1
		c-0.9,2.2-5.2,3.3-12.8,3.3c-16.5,0-26.1-0.6-28.7-1.8c-3-0.9-4.6-3.3-4.6-7.1V40.1z"/>
</g>
<g class="st0">
	<path class="st1" d="M75.1,159l2.1,0.6c-1.3,4.5-2.7,8.4-4,11.7v33.6h-2.2v-28.6c-1.5,3.3-3.1,6.3-4.8,9.1l-1.6-1.2
		c2.2-3.7,4.2-7.6,5.9-11.6C72.5,167.9,74,163.4,75.1,159z M107.9,161.5V205h-2.3v-3.7h-24v3.7h-2.3v-43.4H107.9z M81.5,199.2h24
		v-35.5h-24V199.2z M83.2,172.3h9.1v-6.6h2.2v6.6h9.4v2.1h-9.4v6.1h6.9v14.1H85.6v-14.1h6.8v-6.1h-9.1V172.3z M87.8,192.6h11.5
		v-10.1H87.8V192.6z"/>
	<path class="st1" d="M148.8,159l2.8,0.2c-0.1,5.9-0.5,10.7-1.2,14.4c3.4,7.2,6.8,12.8,10.1,16.8c4.2,4.9,8.4,8.8,12.7,11.6
		l-1.4,2.9c-4.2-2.6-8.1-6.2-11.8-10.5c-3.5-4-7-9.6-10.5-16.9c-0.2,0.8-0.5,1.6-0.8,2.3c-1.6,4.6-4.1,9.1-7.5,13.5
		c-3.6,4.6-7.5,8.4-11.8,11.6l-1.8-2.1c4.1-3.1,7.9-6.8,11.3-11.1c3.3-4.2,5.7-8.5,7.1-13C147.7,174.7,148.6,168.2,148.8,159z"/>
	<path class="st1" d="M191.3,172.5c3.1,1.9,5.9,4,8.4,6.5l-1.4,1.7c-2.6-2.6-5.3-4.8-8.2-6.6L191.3,172.5z M199.5,184.4l1.7,1.2
		c-2,6-4.9,12.1-8.8,18.1l-2-1.3C194.3,196.9,197.3,190.9,199.5,184.4z M194,160.8c3.1,1.8,6,3.9,8.5,6.4l-1.4,1.8
		c-2.6-2.6-5.4-4.8-8.4-6.6L194,160.8z M203.7,163h13.2v-4.1h2.2v4.1h14.5v2h-14.5v4.1h11.1v2h-11.1v4.2h16.5v2h-34.5v-2h15.8V171
		h-11.1v-2h11.1V165h-13.2V163z M230.1,180.9v19.8c0,2.3-1.6,3.5-4.9,3.5c-1.4,0-3-0.2-4.9-0.6v-2.1c1.9,0.6,3.5,0.8,4.9,0.8
		c1.8,0,2.7-0.7,2.7-2v-4.5h-19.8v9.1h-2.2v-24H230.1z M208.1,187.4h19.8v-4.5h-19.8V187.4z M208.1,193.8h19.8v-4.4h-19.8V193.8z"/>
	<path class="st1" d="M253.3,171.2c2.8,2,5.3,4.3,7.6,7l-1.4,1.8c-2.3-2.8-4.8-5.2-7.4-7.2L253.3,171.2z M260.6,183.3l1.8,1.1
		c-1.8,6.6-4.5,13.2-8,19.8l-2-1.4C255.9,196.8,258.6,190.3,260.6,183.3z M255.5,160c2.7,2,5.2,4.4,7.4,7.1l-1.4,1.8
		c-2.3-2.8-4.7-5.3-7.2-7.3L255.5,160z M271,194l1.8,1.3c-1.1,1.3-2.5,2.5-4.3,3.8c-2.1,1.4-4,2.6-5.9,3.5l-1.4-2
		c1.8-0.8,3.7-1.9,5.7-3.2C268.5,196.3,269.9,195.2,271,194z M263.9,162.2h7.2v-3.3h2v3.3h6.8v1.7h-6.8v3.7h5.9v1.8h-5.9v3.6
		c2.6-0.5,4.9-1,7-1.5l0.2,1.8c-2.3,0.6-4.7,1.1-7.2,1.6v3.4h-2v-3.1c-2.4,0.4-4.9,0.8-7.4,1.1l-0.2-2c2.7-0.3,5.3-0.7,7.6-1.1v-4
		h-6.2v-1.8h6.2v-3.7h-7.2V162.2z M277.5,175.7l2,1.6c-0.8,0.9-2.1,2-3.7,3.1c-1,0.7-2,1.3-3.1,1.9c3.7,0,7.1-0.1,10.3-0.2
		c1.9-1.4,3.5-2.8,4.9-4.2l2,1.8c-2.4,2.1-5.2,4.1-8.5,6.2c-2.4,1.4-5,2.8-8,4.1c6.2-0.2,11.8-0.6,16.8-1.2c-1.1-1-2.1-1.9-3.2-2.7
		l1.1-1.6c2.9,2.1,5.6,4.6,8,7.5l-1.4,1.8c-0.9-1.1-1.9-2.2-2.8-3.2c-3.4,0.5-7.2,0.9-11.4,1.2v8.6c0,3-1.2,4.5-3.5,4.5
		c-1.8,0-3.5-0.2-5.1-0.6l-0.2-2.4c1.8,0.6,3.6,0.8,5.3,0.8c0.9,0,1.3-0.8,1.3-2.5v-8.3c-4.4,0.3-9.2,0.4-14.4,0.4l-0.4-2.1
		c1.7,0,3.4,0,5,0c2.7-1.1,5.7-2.5,9.1-4.3c1-0.6,2-1.2,2.8-1.8c-3.8,0.3-8.4,0.4-13.9,0.4l-0.2-2h3.2c1.2-0.7,2.5-1.6,3.8-2.5
		C274.9,178.4,276.4,177,277.5,175.7z M281.1,161.2h14.6c-0.3,8.6-0.9,13.6-1.8,14.9c-0.6,0.9-1.8,1.4-3.5,1.4
		c-1.1,0-2.5-0.3-4.1-0.8l-0.2-2.1c1.7,0.6,3.1,0.8,4.3,0.8c1,0,1.7-0.4,2.1-1.1c0.5-0.9,0.9-4.5,1.1-11h-5.5
		c-0.1,3.6-0.8,6.6-2.1,9c-1,2.3-2.6,4.3-4.7,6l-1.4-1.1c1.9-1.6,3.4-3.5,4.4-5.6c0.9-2.1,1.5-4.9,1.8-8.3h-5V161.2z M287.2,193.8
		c3.4,2,6.6,4.2,9.5,6.8l-1.5,1.8c-2.9-2.8-6-5.1-9.4-7.1L287.2,193.8z"/>
	<path class="st1" d="M328.8,188.7l1.3,2c-3.7,4.2-7.8,7.6-12.3,10.2l-1.1-2.1C320.7,196.5,324.7,193.2,328.8,188.7z M355.1,158.9
		l1.6,2c-4.8,1.5-10.1,2.7-16,3.5c-1.1,0.2-2.2,0.3-3.2,0.4c-2.5,3.3-5.5,6.4-9,9.3c4.9-0.1,9.4-0.2,13.6-0.4c3-2.4,5.6-4.9,7.8-7.4
		l2.3,2c-2.6,2.8-6.4,5.9-11.4,9.4c-3.6,2.5-7.5,4.8-11.6,6.7c6.7-0.3,14.1-0.8,22.1-1.5c-1.8-1.7-3.5-3.1-5.2-4.4l1.4-1.5
		c4.2,3,8,6.5,11.5,10.5l-1.6,2c-1.4-1.7-2.8-3.2-4.2-4.6c-4.4,0.5-9.1,0.9-14,1.3v13.9c0,2.9-1.8,4.3-5.3,4.3
		c-1.7,0-3.3-0.2-4.8-0.6L329,201c1.7,0.6,3.4,0.8,5,0.8c2,0,3-0.9,3-2.6v-13.1c-6.2,0.4-12.7,0.6-19.6,0.8l-0.4-2.3
		c2.6,0,5.3,0,8.1-0.1c4-2.1,8.2-4.7,12.6-7.6c0.6-0.4,1.1-0.8,1.6-1.2c-4.7,0.4-10.5,0.5-17.3,0.5l-0.4-2.1h3.8
		c3.5-2.9,6.4-5.9,8.8-9c-5.1,0.6-10.1,0.9-15.1,1.2l-1.1-2.1c8.9-0.6,16.3-1.2,22.1-2.1C345.5,161.3,350.5,160.2,355.1,158.9z
		 M346.5,189.1c4.8,2.7,9,5.9,12.9,9.6l-1.5,2c-4-3.9-8.3-7.3-12.7-10L346.5,189.1z"/>
	<path class="st1" d="M378.6,162.6H404v2.1h-13.3c-0.4,2.9-1,5.5-1.8,8H402c-1.5,9.1-4,16.1-7.7,21c-3.9,5.1-8.8,8.8-14.6,11
		l-0.9-2.1c5.5-2.1,10-5.5,13.5-10.4c0.4-0.6,0.8-1.1,1.2-1.8c-2.6-3.1-5.3-5.8-8.1-8l1.4-1.5c2.9,2.1,5.6,4.5,8,7.2
		c1.9-3.6,3.3-8.1,4.2-13.3h-10.9c-0.3,0.7-0.5,1.3-0.8,2c-2.1,4.1-4.7,7.6-8,10.5l-1.8-1.8c3.1-2.7,5.6-6,7.6-9.8
		c1.6-3.4,2.7-7,3.2-11.1h-9.8V162.6z M407.4,164.3h2.4v27.9h-2.4V164.3z M417.6,158.9h2.3v40.8c0,2.9-1.4,4.3-4.3,4.3
		c-2,0-3.9-0.2-5.6-0.6l-0.2-2.5c2,0.5,3.9,0.8,5.8,0.8c1.3,0,2-0.8,2-2.5V158.9z"/>
</g>
</svg>
